<svg width="208" height="208" viewBox="0 0 208 208" fill="none" xmlns="http://www.w3.org/2000/svg">
<circle cx="104" cy="104" r="104" fill="#F4EBFF"/>
<path d="M46.7974 61.8692C44.1516 61.8692 42.0002 59.7178 42.0002 57.0721C42.0002 54.4263 44.1516 52.2749 46.7974 52.2749H153.556C156.201 52.2749 158.353 54.4263 158.353 57.0721C158.353 59.7178 156.201 61.8692 153.556 61.8692H46.7974Z" fill="#DBDBDB"/>
<path d="M48.0796 60.8302C45.4339 60.8302 43.2825 58.6788 43.2825 56.033C43.2825 53.3872 45.4339 51.2358 48.0796 51.2358H154.838C157.484 51.2358 159.635 53.3872 159.635 56.033C159.635 58.6788 157.484 60.8302 154.838 60.8302H48.0796Z" fill="#625763"/>
<path d="M48.0796 57.7401C47.1371 57.7401 46.3724 56.9753 46.3724 56.0329C46.3724 55.0905 47.1371 54.3257 48.0796 54.3257H154.838C155.78 54.3257 156.545 55.0905 156.545 56.0329C156.545 56.9753 155.78 57.7401 154.838 57.7401H48.0796Z" fill="#A8A8A8"/>
<path d="M141.373 167.075H67.1909C63.4482 167.075 60.4123 164.039 60.4123 160.296V60.8301H150.967V157.484C150.967 162.78 146.672 167.075 141.373 167.075Z" fill="#234F68"/>
<path d="M56.3569 40C52.5717 40 49.501 43.0707 49.501 46.8559V57.7209H63.0196V46.8559V40H56.3569Z" fill="#234F68"/>
<path d="M60.4124 46.8559V60.8302H63.0195V46.8559V40H60.4124H56.3568C55.8778 40 55.4066 40.0502 54.9547 40.1429C58.0717 40.7918 60.4124 43.5496 60.4124 46.8559Z" fill="#234F68"/>
<g filter="url(#filter0_dd_31_270)">
<path d="M148.152 41H64.8558H58.0001C61.7852 41 64.8558 43.8084 64.8558 47.2704V149.74C64.8558 153.199 67.9187 156 71.6999 156H155V47.2598C155 43.8013 151.933 41 148.152 41Z" fill="#D2D6DB"/>
</g>
<path d="M146.317 40H63.0196H56.1638C59.949 40 63.0196 43.0707 63.0196 46.8559V158.894C63.0196 162.675 66.0825 165.738 69.8639 165.738H153.165V46.8443C153.165 43.0629 150.099 40 146.317 40Z" fill="#FCFAFF"/>
<path opacity="0.3" d="M153.165 154.889L152.412 154.136L150.802 155.746L149.191 154.136L147.58 155.746L145.97 154.136L144.359 155.746L142.748 154.136L141.138 155.746L139.527 154.136L137.916 155.746L136.306 154.136L134.695 155.746L133.085 154.136L131.474 155.746L129.863 154.136L128.253 155.746L126.642 154.136L125.031 155.746L123.421 154.136L121.81 155.746L120.199 154.136L118.589 155.746L116.978 154.136L115.367 155.746L113.757 154.136L112.146 155.746L110.559 154.136L108.948 155.746L107.337 154.136L105.727 155.746L104.116 154.136L102.505 155.746L100.903 154.136L99.2919 155.746L97.6813 154.136L96.0706 155.746L94.46 154.136L92.8493 155.746L91.2387 154.136L89.628 155.746L88.0174 154.136L86.4068 155.746L84.7961 154.136L83.1855 155.746L81.5748 154.136L79.9642 155.746L78.3535 154.136L76.7429 155.746L75.1323 154.136L73.5216 155.746L71.911 154.136V161.2C71.911 162.942 71.2543 164.53 70.1844 165.739H153.15V154.889H153.165Z" fill="#DBDBDB"/>
<path d="M165.224 150.883L163.613 149.272L162.003 150.883L160.392 149.272L158.781 150.883L157.171 149.272L155.56 150.883L153.949 149.272L152.339 150.883L150.728 149.272L149.117 150.883L147.507 149.272L145.896 150.883L144.286 149.272L142.675 150.883L141.064 149.272L139.454 150.883L137.843 149.272L136.232 150.883L134.622 149.272L133.011 150.883L131.4 149.272L129.79 150.883L128.179 149.272L126.568 150.883L124.958 149.272L123.347 150.883L121.737 149.272L120.126 150.883L118.515 149.272L116.905 150.883L115.294 149.272L113.683 150.883L112.073 149.272L110.462 150.883L108.851 149.272L107.241 150.883L105.63 149.272L104.019 150.883L102.409 149.272L100.798 150.883L99.1875 149.272L97.5769 150.883L95.9662 149.272L94.3556 150.883L92.7449 149.272L91.1343 150.883L89.5237 149.272L87.913 150.883L86.3024 149.272L84.6917 150.883L83.0811 149.272L81.4704 150.883L79.8598 149.272L78.2492 150.883L76.6385 149.272V158.882C76.6385 162.667 73.5679 165.738 69.7827 165.738H76.6385H159.94C163.721 165.738 166.784 162.675 166.784 158.894V149.276L165.224 150.883Z" fill="#234F68"/>
<path d="M90.0538 67.8433V68.104H88.9918V67.8433H90.0538Z" fill="#1F2A37"/>
<path d="M91.5889 67.8433V68.104H90.5269V67.8433H91.5889Z" fill="#1F2A37"/>
<path d="M93.124 67.8433V68.104H92.0621V67.8433H93.124Z" fill="#1F2A37"/>
<path d="M94.6591 67.8433V68.104H93.5972V67.8433H94.6591Z" fill="#1F2A37"/>
<path d="M96.1942 67.8433V68.104H95.1323V67.8433H96.1942Z" fill="#1F2A37"/>
<path d="M97.7294 67.8433V68.104H96.6674V67.8433H97.7294Z" fill="#1F2A37"/>
<path d="M99.2645 67.8433V68.104H98.2026V67.8433H99.2645Z" fill="#1F2A37"/>
<path d="M100.8 67.8433V68.104H99.7377V67.8433H100.8Z" fill="#1F2A37"/>
<path d="M102.335 67.8433V68.104H101.273V67.8433H102.335Z" fill="#1F2A37"/>
<path d="M103.87 67.8433V68.104H102.808V67.8433H103.87Z" fill="#1F2A37"/>
<path d="M105.405 67.8433V68.104H104.343V67.8433H105.405Z" fill="#1F2A37"/>
<path d="M106.94 67.8433V68.104H105.878V67.8433H106.94Z" fill="#1F2A37"/>
<path d="M108.475 67.8433V68.104H107.413V67.8433H108.475Z" fill="#1F2A37"/>
<path d="M110.01 67.8433V68.104H108.948V67.8433H110.01Z" fill="#1F2A37"/>
<path d="M111.545 67.8433V68.104H110.484V67.8433H111.545Z" fill="#1F2A37"/>
<path d="M113.081 67.8433V68.104H112.019V67.8433H113.081Z" fill="#1F2A37"/>
<path d="M114.616 67.8433V68.104H113.554V67.8433H114.616Z" fill="#1F2A37"/>
<path d="M116.151 67.8433V68.104H115.089V67.8433H116.151Z" fill="#1F2A37"/>
<path d="M117.686 67.8433V68.104H116.624V67.8433H117.686Z" fill="#1F2A37"/>
<path d="M119.221 67.8433V68.104H118.159V67.8433H119.221Z" fill="#1F2A37"/>
<path d="M120.756 67.8433V68.104H119.694V67.8433H120.756Z" fill="#1F2A37"/>
<path d="M122.291 67.8433V68.104H121.229V67.8433H122.291Z" fill="#1F2A37"/>
<path d="M123.826 67.8433V68.104H122.765V67.8433H123.826Z" fill="#1F2A37"/>
<path d="M125.362 67.8433V68.104H124.3V67.8433H125.362Z" fill="#1F2A37"/>
<path d="M126.897 67.8433V68.104H125.835V67.8433H126.897Z" fill="#1F2A37"/>
<path d="M128.432 67.8433V68.104H127.37V67.8433H128.432Z" fill="#1F2A37"/>
<path d="M129.967 67.8433V68.104H128.905V67.8433H129.967Z" fill="#1F2A37"/>
<path d="M131.502 67.8433V68.104H130.44V67.8433H131.502Z" fill="#1F2A37"/>
<path d="M133.037 67.8433V68.104H131.975V67.8433H133.037Z" fill="#1F2A37"/>
<path d="M134.572 67.8433V68.104H133.51V67.8433H134.572Z" fill="#1F2A37"/>
<path d="M136.107 67.8433V68.104H135.046V67.8433H136.107Z" fill="#1F2A37"/>
<path d="M137.643 67.8433V68.104H136.581V67.8433H137.643Z" fill="#1F2A37"/>
<path d="M139.178 67.8433V68.104H138.116V67.8433H139.178Z" fill="#1F2A37"/>
<path d="M140.713 67.8433V68.104H139.651V67.8433H140.713Z" fill="#1F2A37"/>
<path d="M142.248 67.8433V68.104H141.186V67.8433H142.248Z" fill="#1F2A37"/>
<path d="M143.783 67.8433V68.104H142.721V67.8433H143.783Z" fill="#1F2A37"/>
<path d="M145.318 67.8433V68.104H144.256V67.8433H145.318Z" fill="#1F2A37"/>
<path d="M146.853 67.8433V68.104H145.791V67.8433H146.853Z" fill="#1F2A37"/>
<path d="M90.0538 52.7847V53.0454H88.9918V52.7847H90.0538Z" fill="#1F2A37"/>
<path d="M91.5889 52.7847V53.0454H90.5269V52.7847H91.5889Z" fill="#1F2A37"/>
<path d="M93.124 52.7847V53.0454H92.0621V52.7847H93.124Z" fill="#1F2A37"/>
<path d="M94.6591 52.7847V53.0454H93.5972V52.7847H94.6591Z" fill="#1F2A37"/>
<path d="M96.1942 52.7847V53.0454H95.1323V52.7847H96.1942Z" fill="#1F2A37"/>
<path d="M97.7294 52.7847V53.0454H96.6674V52.7847H97.7294Z" fill="#1F2A37"/>
<path d="M99.2645 52.7847V53.0454H98.2026V52.7847H99.2645Z" fill="#1F2A37"/>
<path d="M100.8 52.7847V53.0454H99.7377V52.7847H100.8Z" fill="#1F2A37"/>
<path d="M102.335 52.7847V53.0454H101.273V52.7847H102.335Z" fill="#1F2A37"/>
<path d="M103.87 52.7847V53.0454H102.808V52.7847H103.87Z" fill="#1F2A37"/>
<path d="M105.405 52.7847V53.0454H104.343V52.7847H105.405Z" fill="#1F2A37"/>
<path d="M106.94 52.7847V53.0454H105.878V52.7847H106.94Z" fill="#1F2A37"/>
<path d="M108.475 52.7847V53.0454H107.413V52.7847H108.475Z" fill="#1F2A37"/>
<path d="M110.01 52.7847V53.0454H108.948V52.7847H110.01Z" fill="#1F2A37"/>
<path d="M111.545 52.7847V53.0454H110.484V52.7847H111.545Z" fill="#1F2A37"/>
<path d="M113.081 52.7847V53.0454H112.019V52.7847H113.081Z" fill="#1F2A37"/>
<path d="M114.616 52.7847V53.0454H113.554V52.7847H114.616Z" fill="#1F2A37"/>
<path d="M116.151 52.7847V53.0454H115.089V52.7847H116.151Z" fill="#1F2A37"/>
<path d="M117.686 52.7847V53.0454H116.624V52.7847H117.686Z" fill="#1F2A37"/>
<path d="M119.221 52.7847V53.0454H118.159V52.7847H119.221Z" fill="#1F2A37"/>
<path d="M120.756 52.7847V53.0454H119.694V52.7847H120.756Z" fill="#1F2A37"/>
<path d="M122.291 52.7847V53.0454H121.229V52.7847H122.291Z" fill="#1F2A37"/>
<path d="M123.826 52.7847V53.0454H122.765V52.7847H123.826Z" fill="#1F2A37"/>
<path d="M125.362 52.7847V53.0454H124.3V52.7847H125.362Z" fill="#1F2A37"/>
<path d="M126.897 52.7847V53.0454H125.835V52.7847H126.897Z" fill="#1F2A37"/>
<path d="M128.432 52.7847V53.0454H127.37V52.7847H128.432Z" fill="#1F2A37"/>
<path d="M129.967 52.7847V53.0454H128.905V52.7847H129.967Z" fill="#1F2A37"/>
<path d="M131.502 52.7847V53.0454H130.44V52.7847H131.502Z" fill="#1F2A37"/>
<path d="M133.037 52.7847V53.0454H131.975V52.7847H133.037Z" fill="#1F2A37"/>
<path d="M134.572 52.7847V53.0454H133.51V52.7847H134.572Z" fill="#1F2A37"/>
<path d="M136.107 52.7847V53.0454H135.046V52.7847H136.107Z" fill="#1F2A37"/>
<path d="M137.643 52.7847V53.0454H136.581V52.7847H137.643Z" fill="#1F2A37"/>
<path d="M139.178 52.7847V53.0454H138.116V52.7847H139.178Z" fill="#1F2A37"/>
<path d="M140.713 52.7847V53.0454H139.651V52.7847H140.713Z" fill="#1F2A37"/>
<path d="M142.248 52.7847V53.0454H141.186V52.7847H142.248Z" fill="#1F2A37"/>
<path d="M143.783 52.7847V53.0454H142.721V52.7847H143.783Z" fill="#1F2A37"/>
<path d="M145.318 52.7847V53.0454H144.256V52.7847H145.318Z" fill="#1F2A37"/>
<path d="M146.853 52.7847V53.0454H145.791V52.7847H146.853Z" fill="#1F2A37"/>
<path d="M90.0538 132.99V133.251H88.9918V132.99H90.0538Z" fill="#1F2A37"/>
<path d="M91.5889 132.99V133.251H90.5269V132.99H91.5889Z" fill="#1F2A37"/>
<path d="M93.124 132.99V133.251H92.0621V132.99H93.124Z" fill="#1F2A37"/>
<path d="M94.6591 132.99V133.251H93.5972V132.99H94.6591Z" fill="#1F2A37"/>
<path d="M96.1942 132.99V133.251H95.1323V132.99H96.1942Z" fill="#1F2A37"/>
<path d="M97.7294 132.99V133.251H96.6674V132.99H97.7294Z" fill="#1F2A37"/>
<path d="M99.2645 132.99V133.251H98.2026V132.99H99.2645Z" fill="#1F2A37"/>
<path d="M100.8 132.99V133.251H99.7377V132.99H100.8Z" fill="#1F2A37"/>
<path d="M102.335 132.99V133.251H101.273V132.99H102.335Z" fill="#1F2A37"/>
<path d="M103.87 132.99V133.251H102.808V132.99H103.87Z" fill="#1F2A37"/>
<path d="M105.405 132.99V133.251H104.343V132.99H105.405Z" fill="#1F2A37"/>
<path d="M106.94 132.99V133.251H105.878V132.99H106.94Z" fill="#1F2A37"/>
<path d="M108.475 132.99V133.251H107.413V132.99H108.475Z" fill="#1F2A37"/>
<path d="M110.01 132.99V133.251H108.948V132.99H110.01Z" fill="#1F2A37"/>
<path d="M111.545 132.99V133.251H110.484V132.99H111.545Z" fill="#1F2A37"/>
<path d="M113.081 132.99V133.251H112.019V132.99H113.081Z" fill="#1F2A37"/>
<path d="M114.616 132.99V133.251H113.554V132.99H114.616Z" fill="#1F2A37"/>
<path d="M116.151 132.99V133.251H115.089V132.99H116.151Z" fill="#1F2A37"/>
<path d="M117.686 132.99V133.251H116.624V132.99H117.686Z" fill="#1F2A37"/>
<path d="M119.221 132.99V133.251H118.159V132.99H119.221Z" fill="#1F2A37"/>
<path d="M120.756 132.99V133.251H119.694V132.99H120.756Z" fill="#1F2A37"/>
<path d="M122.291 132.99V133.251H121.229V132.99H122.291Z" fill="#1F2A37"/>
<path d="M123.826 132.99V133.251H122.765V132.99H123.826Z" fill="#1F2A37"/>
<path d="M125.362 132.99V133.251H124.3V132.99H125.362Z" fill="#1F2A37"/>
<path d="M126.897 132.99V133.251H125.835V132.99H126.897Z" fill="#1F2A37"/>
<path d="M128.432 132.99V133.251H127.37V132.99H128.432Z" fill="#1F2A37"/>
<path d="M129.967 132.99V133.251H128.905V132.99H129.967Z" fill="#1F2A37"/>
<path d="M131.502 132.99V133.251H130.44V132.99H131.502Z" fill="#1F2A37"/>
<path d="M133.037 132.99V133.251H131.975V132.99H133.037Z" fill="#1F2A37"/>
<path d="M134.572 132.99V133.251H133.51V132.99H134.572Z" fill="#1F2A37"/>
<path d="M136.107 132.99V133.251H135.046V132.99H136.107Z" fill="#1F2A37"/>
<path d="M137.643 132.99V133.251H136.581V132.99H137.643Z" fill="#1F2A37"/>
<path d="M139.178 132.99V133.251H138.116V132.99H139.178Z" fill="#1F2A37"/>
<path d="M140.713 132.99V133.251H139.651V132.99H140.713Z" fill="#1F2A37"/>
<path d="M142.248 132.99V133.251H141.186V132.99H142.248Z" fill="#1F2A37"/>
<path d="M143.783 132.99V133.251H142.721V132.99H143.783Z" fill="#1F2A37"/>
<path d="M145.318 132.99V133.251H144.256V132.99H145.318Z" fill="#1F2A37"/>
<path d="M146.853 132.99V133.251H145.791V132.99H146.853Z" fill="#1F2A37"/>
<path d="M90.0538 117.604V117.865H88.9918V117.604H90.0538Z" fill="#1F2A37"/>
<path d="M91.5889 117.604V117.865H90.5269V117.604H91.5889Z" fill="#1F2A37"/>
<path d="M93.124 117.604V117.865H92.0621V117.604H93.124Z" fill="#1F2A37"/>
<path d="M94.6591 117.604V117.865H93.5972V117.604H94.6591Z" fill="#1F2A37"/>
<path d="M96.1942 117.604V117.865H95.1323V117.604H96.1942Z" fill="#1F2A37"/>
<path d="M97.7294 117.604V117.865H96.6674V117.604H97.7294Z" fill="#1F2A37"/>
<path d="M99.2645 117.604V117.865H98.2026V117.604H99.2645Z" fill="#1F2A37"/>
<path d="M100.8 117.604V117.865H99.7377V117.604H100.8Z" fill="#1F2A37"/>
<path d="M102.335 117.604V117.865H101.273V117.604H102.335Z" fill="#1F2A37"/>
<path d="M103.87 117.604V117.865H102.808V117.604H103.87Z" fill="#1F2A37"/>
<path d="M105.405 117.604V117.865H104.343V117.604H105.405Z" fill="#1F2A37"/>
<path d="M106.94 117.604V117.865H105.878V117.604H106.94Z" fill="#1F2A37"/>
<path d="M108.475 117.604V117.865H107.413V117.604H108.475Z" fill="#1F2A37"/>
<path d="M110.01 117.604V117.865H108.948V117.604H110.01Z" fill="#1F2A37"/>
<path d="M111.545 117.604V117.865H110.484V117.604H111.545Z" fill="#1F2A37"/>
<path d="M113.081 117.604V117.865H112.019V117.604H113.081Z" fill="#1F2A37"/>
<path d="M114.616 117.604V117.865H113.554V117.604H114.616Z" fill="#1F2A37"/>
<path d="M116.151 117.604V117.865H115.089V117.604H116.151Z" fill="#1F2A37"/>
<path d="M117.686 117.604V117.865H116.624V117.604H117.686Z" fill="#1F2A37"/>
<path d="M119.221 117.604V117.865H118.159V117.604H119.221Z" fill="#1F2A37"/>
<path d="M120.756 117.604V117.865H119.694V117.604H120.756Z" fill="#1F2A37"/>
<path d="M122.291 117.604V117.865H121.229V117.604H122.291Z" fill="#1F2A37"/>
<path d="M123.826 117.604V117.865H122.765V117.604H123.826Z" fill="#1F2A37"/>
<path d="M125.362 117.604V117.865H124.3V117.604H125.362Z" fill="#1F2A37"/>
<path d="M126.897 117.604V117.865H125.835V117.604H126.897Z" fill="#1F2A37"/>
<path d="M128.432 117.604V117.865H127.37V117.604H128.432Z" fill="#1F2A37"/>
<path d="M129.967 117.604V117.865H128.905V117.604H129.967Z" fill="#1F2A37"/>
<path d="M131.502 117.604V117.865H130.44V117.604H131.502Z" fill="#1F2A37"/>
<path d="M133.037 117.604V117.865H131.975V117.604H133.037Z" fill="#1F2A37"/>
<path d="M134.572 117.604V117.865H133.51V117.604H134.572Z" fill="#1F2A37"/>
<path d="M136.107 117.604V117.865H135.046V117.604H136.107Z" fill="#1F2A37"/>
<path d="M137.643 117.604V117.865H136.581V117.604H137.643Z" fill="#1F2A37"/>
<path d="M139.178 117.604V117.865H138.116V117.604H139.178Z" fill="#1F2A37"/>
<path d="M140.713 117.604V117.865H139.651V117.604H140.713Z" fill="#1F2A37"/>
<path d="M142.248 117.604V117.865H141.186V117.604H142.248Z" fill="#1F2A37"/>
<path d="M143.783 117.604V117.865H142.721V117.604H143.783Z" fill="#1F2A37"/>
<path d="M145.318 117.604V117.865H144.256V117.604H145.318Z" fill="#1F2A37"/>
<path d="M146.853 117.604V117.865H145.791V117.604H146.853Z" fill="#1F2A37"/>
<path d="M87.5087 60.6431L87.5389 59.8132L86.8372 60.2584L86.6561 59.9415L87.3955 59.5567L86.6561 59.1719L86.8372 58.855L87.5389 59.3002L87.5087 58.4702H87.8709L87.8407 59.3002L88.5424 58.855L88.7234 59.1719L87.984 59.5567L88.7234 59.9415L88.5424 60.2584L87.8407 59.8132L87.8709 60.6431H87.5087Z" fill="#1F2A37"/>
<path d="M90.1645 60.6431L90.1947 59.8132L89.493 60.2584L89.3119 59.9415L90.0513 59.5567L89.3119 59.1719L89.493 58.855L90.1947 59.3002L90.1645 58.4702H90.5267L90.4965 59.3002L91.1982 58.855L91.3792 59.1719L90.6398 59.5567L91.3792 59.9415L91.1982 60.2584L90.4965 59.8132L90.5267 60.6431H90.1645Z" fill="#1F2A37"/>
<path d="M92.8203 60.6431L92.8505 59.8132L92.1488 60.2584L91.9677 59.9415L92.7071 59.5567L91.9677 59.1719L92.1488 58.855L92.8505 59.3002L92.8203 58.4702H93.1825L93.1523 59.3002L93.854 58.855L94.035 59.1719L93.2956 59.5567L94.035 59.9415L93.854 60.2584L93.1523 59.8132L93.1825 60.6431H92.8203Z" fill="#1F2A37"/>
<path d="M99.4037 58.583C99.3811 58.3919 99.2893 58.2435 99.1284 58.1379C98.9674 58.0322 98.77 57.9794 98.5361 57.9794C98.3651 57.9794 98.2154 58.0071 98.0872 58.0624C97.9602 58.1177 97.8608 58.1938 97.7891 58.2906C97.7187 58.3875 97.6835 58.4975 97.6835 58.6207C97.6835 58.7239 97.708 58.8125 97.7571 58.8867C97.8074 58.9596 97.8715 59.0206 97.9495 59.0697C98.0274 59.1174 98.1092 59.1571 98.1947 59.1885C98.2802 59.2187 98.3588 59.2432 98.4305 59.2621L98.8228 59.3677C98.9234 59.3941 99.0353 59.4306 99.1585 59.4771C99.283 59.5236 99.4019 59.5871 99.515 59.6676C99.6295 59.7468 99.7238 59.8487 99.798 59.9732C99.8722 60.0977 99.9093 60.2504 99.9093 60.4315C99.9093 60.6403 99.8545 60.8289 99.7451 60.9974C99.637 61.1659 99.4786 61.2998 99.2698 61.3991C99.0623 61.4985 98.8102 61.5482 98.5134 61.5482C98.2368 61.5482 97.9972 61.5035 97.7948 61.4142C97.5936 61.325 97.4352 61.2005 97.3195 61.0408C97.205 60.8811 97.1403 60.6956 97.1252 60.4843H97.6081C97.6206 60.6302 97.6697 60.7509 97.7552 60.8465C97.8419 60.9408 97.9513 61.0112 98.0834 61.0577C98.2167 61.103 98.36 61.1256 98.5134 61.1256C98.692 61.1256 98.8523 61.0967 98.9944 61.0389C99.1365 60.9798 99.2491 60.898 99.3321 60.7937C99.4151 60.688 99.4566 60.5648 99.4566 60.424C99.4566 60.2957 99.4207 60.1913 99.349 60.1109C99.2774 60.0304 99.1831 59.965 99.0661 59.9147C98.9492 59.8644 98.8228 59.8204 98.687 59.7827L98.2116 59.6468C97.9099 59.5601 97.6709 59.4362 97.4949 59.2753C97.3188 59.1143 97.2308 58.9037 97.2308 58.6434C97.2308 58.4271 97.2893 58.2385 97.4062 58.0775C97.5244 57.9153 97.6829 57.7895 97.8816 57.7003C98.0815 57.6097 98.3047 57.5645 98.5512 57.5645C98.8002 57.5645 99.0215 57.6091 99.2151 57.6984C99.4088 57.7864 99.5622 57.9071 99.6754 58.0605C99.7898 58.2139 99.8501 58.3881 99.8564 58.583H99.4037Z" fill="#1F2A37"/>
<path d="M102.444 60.2957V58.583H102.889V61.4803H102.444V60.9898H102.414C102.346 61.137 102.24 61.2621 102.097 61.3652C101.953 61.4671 101.772 61.518 101.554 61.518C101.372 61.518 101.212 61.4784 101.071 61.3991C100.93 61.3187 100.819 61.1979 100.739 61.037C100.658 60.8748 100.618 60.6704 100.618 60.424V58.583H101.063V60.3938C101.063 60.605 101.122 60.7735 101.24 60.8993C101.36 61.025 101.512 61.0879 101.697 61.0879C101.808 61.0879 101.92 61.0596 102.035 61.003C102.15 60.9465 102.247 60.8597 102.325 60.7427C102.404 60.6258 102.444 60.4768 102.444 60.2957Z" fill="#1F2A37"/>
<path d="M104.881 61.5406C104.61 61.5406 104.376 61.4765 104.18 61.3482C103.983 61.22 103.833 61.0433 103.727 60.8182C103.621 60.5931 103.569 60.3359 103.569 60.0467C103.569 59.7525 103.623 59.4928 103.731 59.2677C103.84 59.0414 103.992 58.8647 104.187 58.7377C104.383 58.6094 104.612 58.5453 104.874 58.5453C105.078 58.5453 105.261 58.583 105.425 58.6585C105.588 58.7339 105.722 58.8395 105.826 58.9753C105.931 59.1112 105.995 59.2696 106.021 59.4507H105.575C105.542 59.3186 105.466 59.2017 105.349 59.0998C105.233 58.9967 105.078 58.9452 104.881 58.9452C104.708 58.9452 104.556 58.9904 104.425 59.081C104.295 59.1703 104.194 59.2966 104.121 59.4601C104.05 59.6223 104.014 59.8128 104.014 60.0316C104.014 60.2555 104.049 60.4504 104.119 60.6164C104.191 60.7824 104.292 60.9112 104.421 61.003C104.552 61.0948 104.705 61.1407 104.881 61.1407C104.997 61.1407 105.102 61.1206 105.196 61.0804C105.291 61.0401 105.37 60.9823 105.436 60.9068C105.501 60.8314 105.548 60.7409 105.575 60.6352H106.021C105.995 60.8062 105.933 60.9603 105.834 61.0974C105.736 61.2332 105.606 61.3413 105.443 61.4218C105.282 61.501 105.095 61.5406 104.881 61.5406Z" fill="#1F2A37"/>
<path d="M107.848 61.5406C107.577 61.5406 107.343 61.4765 107.147 61.3482C106.951 61.22 106.8 61.0433 106.694 60.8182C106.588 60.5931 106.536 60.3359 106.536 60.0467C106.536 59.7525 106.59 59.4928 106.698 59.2677C106.807 59.0414 106.959 58.8647 107.154 58.7377C107.35 58.6094 107.579 58.5453 107.841 58.5453C108.045 58.5453 108.228 58.583 108.392 58.6585C108.555 58.7339 108.689 58.8395 108.793 58.9753C108.898 59.1112 108.962 59.2696 108.988 59.4507H108.542C108.509 59.3186 108.433 59.2017 108.316 59.0998C108.2 58.9967 108.045 58.9452 107.848 58.9452C107.675 58.9452 107.523 58.9904 107.392 59.081C107.262 59.1703 107.161 59.2966 107.088 59.4601C107.017 59.6223 106.981 59.8128 106.981 60.0316C106.981 60.2555 107.016 60.4504 107.086 60.6164C107.158 60.7824 107.259 60.9112 107.388 61.003C107.519 61.0948 107.672 61.1407 107.848 61.1407C107.964 61.1407 108.069 61.1206 108.163 61.0804C108.258 61.0401 108.338 60.9823 108.403 60.9068C108.468 60.8314 108.515 60.7409 108.542 60.6352H108.988C108.962 60.8062 108.9 60.9603 108.801 61.0974C108.703 61.2332 108.573 61.3413 108.41 61.4218C108.25 61.501 108.062 61.5406 107.848 61.5406Z" fill="#1F2A37"/>
<path d="M110.853 61.5406C110.574 61.5406 110.333 61.479 110.131 61.3558C109.93 61.2313 109.774 61.0577 109.665 60.8352C109.557 60.6113 109.503 60.351 109.503 60.0543C109.503 59.7575 109.557 59.4959 109.665 59.2696C109.774 59.042 109.926 58.8647 110.121 58.7377C110.317 58.6094 110.546 58.5453 110.808 58.5453C110.959 58.5453 111.108 58.5704 111.255 58.6207C111.402 58.671 111.536 58.7528 111.657 58.8659C111.777 58.9779 111.874 59.1262 111.945 59.3111C112.017 59.4959 112.053 59.7236 112.053 59.9939V60.1825H109.819V59.7977H111.6C111.6 59.6343 111.567 59.4884 111.502 59.3601C111.438 59.2319 111.346 59.1306 111.227 59.0565C111.108 58.9823 110.969 58.9452 110.808 58.9452C110.631 58.9452 110.477 58.9892 110.348 59.0772C110.219 59.164 110.121 59.2771 110.051 59.4167C109.982 59.5563 109.948 59.7059 109.948 59.8656V60.1222C109.948 60.341 109.985 60.5265 110.061 60.6786C110.138 60.8295 110.244 60.9446 110.38 61.0238C110.515 61.1018 110.673 61.1407 110.853 61.1407C110.97 61.1407 111.076 61.1244 111.17 61.0917C111.266 61.0577 111.348 61.0074 111.417 60.9408C111.486 60.8729 111.54 60.7886 111.577 60.688L112.007 60.8088C111.962 60.9546 111.886 61.0829 111.779 61.1935C111.672 61.3029 111.54 61.3885 111.383 61.4501C111.226 61.5104 111.049 61.5406 110.853 61.5406Z" fill="#1F2A37"/>
<path d="M114.782 59.2319L114.382 59.345C114.357 59.2784 114.32 59.2136 114.271 59.1508C114.223 59.0866 114.158 59.0338 114.075 58.9923C113.992 58.9508 113.886 58.9301 113.756 58.9301C113.579 58.9301 113.431 58.9709 113.313 59.0527C113.196 59.1332 113.137 59.2356 113.137 59.3601C113.137 59.4708 113.178 59.5582 113.258 59.6223C113.339 59.6865 113.464 59.7399 113.635 59.7827L114.065 59.8883C114.324 59.9512 114.517 60.0474 114.644 60.1769C114.771 60.3051 114.835 60.4705 114.835 60.673C114.835 60.8389 114.787 60.9873 114.692 61.1181C114.597 61.2489 114.465 61.352 114.295 61.4274C114.126 61.5029 113.928 61.5406 113.703 61.5406C113.408 61.5406 113.163 61.4765 112.969 61.3482C112.776 61.22 112.653 61.0326 112.602 60.7861L113.024 60.6805C113.064 60.8364 113.14 60.9534 113.252 61.0313C113.366 61.1093 113.513 61.1483 113.696 61.1483C113.903 61.1483 114.068 61.1043 114.19 61.0162C114.313 60.927 114.375 60.8201 114.375 60.6956C114.375 60.595 114.339 60.5107 114.269 60.4428C114.199 60.3737 114.091 60.3221 113.945 60.2882L113.462 60.175C113.196 60.1121 113.002 60.0147 112.877 59.8826C112.754 59.7493 112.692 59.5827 112.692 59.3828C112.692 59.2193 112.738 59.0747 112.83 58.9489C112.923 58.8232 113.049 58.7245 113.209 58.6528C113.37 58.5811 113.552 58.5453 113.756 58.5453C114.043 58.5453 114.268 58.6082 114.431 58.7339C114.596 58.8597 114.713 59.0256 114.782 59.2319Z" fill="#1F2A37"/>
<path d="M117.557 59.2319L117.157 59.345C117.132 59.2784 117.095 59.2136 117.046 59.1508C116.998 59.0866 116.933 59.0338 116.85 58.9923C116.767 58.9508 116.661 58.9301 116.531 58.9301C116.354 58.9301 116.206 58.9709 116.088 59.0527C115.971 59.1332 115.912 59.2356 115.912 59.3601C115.912 59.4708 115.953 59.5582 116.033 59.6223C116.114 59.6865 116.239 59.7399 116.41 59.7827L116.84 59.8883C117.1 59.9512 117.293 60.0474 117.42 60.1769C117.547 60.3051 117.61 60.4705 117.61 60.673C117.61 60.8389 117.562 60.9873 117.467 61.1181C117.372 61.2489 117.24 61.352 117.071 61.4274C116.901 61.5029 116.703 61.5406 116.478 61.5406C116.183 61.5406 115.938 61.4765 115.745 61.3482C115.551 61.22 115.428 61.0326 115.377 60.7861L115.799 60.6805C115.84 60.8364 115.916 60.9534 116.028 61.0313C116.141 61.1093 116.288 61.1483 116.471 61.1483C116.678 61.1483 116.843 61.1043 116.965 61.0162C117.088 60.927 117.15 60.8201 117.15 60.6956C117.15 60.595 117.115 60.5107 117.044 60.4428C116.974 60.3737 116.866 60.3221 116.72 60.2882L116.237 60.175C115.972 60.1121 115.777 60.0147 115.652 59.8826C115.529 59.7493 115.467 59.5827 115.467 59.3828C115.467 59.2193 115.513 59.0747 115.605 58.9489C115.698 58.8232 115.824 58.7245 115.984 58.6528C116.145 58.5811 116.327 58.5453 116.531 58.5453C116.818 58.5453 117.043 58.6082 117.206 58.7339C117.371 58.8597 117.488 59.0256 117.557 59.2319Z" fill="#1F2A37"/>
<path d="M121.552 60.6431L121.583 59.8132L120.881 60.2584L120.7 59.9415L121.439 59.5567L120.7 59.1719L120.881 58.855L121.583 59.3002L121.552 58.4702H121.915L121.884 59.3002L122.586 58.855L122.767 59.1719L122.028 59.5567L122.767 59.9415L122.586 60.2584L121.884 59.8132L121.915 60.6431H121.552Z" fill="#1F2A37"/>
<path d="M124.208 60.6431L124.238 59.8132L123.537 60.2584L123.356 59.9415L124.095 59.5567L123.356 59.1719L123.537 58.855L124.238 59.3002L124.208 58.4702H124.57L124.54 59.3002L125.242 58.855L125.423 59.1719L124.684 59.5567L125.423 59.9415L125.242 60.2584L124.54 59.8132L124.57 60.6431H124.208Z" fill="#1F2A37"/>
<path d="M126.864 60.6431L126.894 59.8132L126.193 60.2584L126.011 59.9415L126.751 59.5567L126.011 59.1719L126.193 58.855L126.894 59.3002L126.864 58.4702H127.226L127.196 59.3002L127.898 58.855L128.079 59.1719L127.339 59.5567L128.079 59.9415L127.898 60.2584L127.196 59.8132L127.226 60.6431H126.864Z" fill="#1F2A37"/>
<path d="M101.648 140.772V140.506H103.51V140.772H102.729V142.989H102.429V140.772H101.648Z" fill="#1F2A37"/>
<path d="M103.974 142.989V140.506H104.275V141.612H105.599V140.506H105.9V142.989H105.599V141.878H104.275V142.989H103.974Z" fill="#1F2A37"/>
<path d="M106.604 142.989H106.289L107.201 140.506H107.511L108.423 142.989H108.108L107.365 140.899H107.346L106.604 142.989ZM106.72 142.019H107.991V142.286H106.72V142.019Z" fill="#1F2A37"/>
<path d="M110.779 140.506V142.989H110.488L109.135 141.039H109.11V142.989H108.81V140.506H109.101L110.459 142.46H110.483V140.506H110.779Z" fill="#1F2A37"/>
<path d="M111.381 142.989V140.506H111.681V141.738H111.711L112.826 140.506H113.219L112.176 141.626L113.219 142.989H112.855L111.992 141.835L111.681 142.184V142.989H111.381Z" fill="#1F2A37"/>
<path d="M114.355 140.506H114.7L115.388 141.665H115.418L116.106 140.506H116.451L115.553 141.966V142.989H115.253V141.966L114.355 140.506Z" fill="#1F2A37"/>
<path d="M118.818 141.747C118.818 142.009 118.771 142.236 118.676 142.426C118.582 142.617 118.452 142.764 118.287 142.868C118.122 142.971 117.934 143.023 117.722 143.023C117.51 143.023 117.322 142.971 117.157 142.868C116.992 142.764 116.862 142.617 116.768 142.426C116.673 142.236 116.626 142.009 116.626 141.747C116.626 141.485 116.673 141.259 116.768 141.068C116.862 140.878 116.992 140.73 117.157 140.627C117.322 140.523 117.51 140.472 117.722 140.472C117.934 140.472 118.122 140.523 118.287 140.627C118.452 140.73 118.582 140.878 118.676 141.068C118.771 141.259 118.818 141.485 118.818 141.747ZM118.527 141.747C118.527 141.532 118.491 141.351 118.419 141.203C118.348 141.055 118.252 140.943 118.13 140.867C118.008 140.791 117.872 140.753 117.722 140.753C117.572 140.753 117.436 140.791 117.313 140.867C117.192 140.943 117.096 141.055 117.024 141.203C116.952 141.351 116.917 141.532 116.917 141.747C116.917 141.962 116.952 142.144 117.024 142.292C117.096 142.44 117.192 142.552 117.313 142.628C117.436 142.704 117.572 142.742 117.722 142.742C117.872 142.742 118.008 142.704 118.13 142.628C118.252 142.552 118.348 142.44 118.419 142.292C118.491 142.144 118.527 141.962 118.527 141.747Z" fill="#1F2A37"/>
<path d="M120.954 140.506H121.254V142.15C121.254 142.32 121.214 142.471 121.134 142.605C121.055 142.737 120.943 142.842 120.799 142.919C120.654 142.995 120.484 143.033 120.289 143.033C120.094 143.033 119.925 142.995 119.78 142.919C119.635 142.842 119.523 142.737 119.443 142.605C119.364 142.471 119.324 142.32 119.324 142.15V140.506H119.625V142.126C119.625 142.247 119.651 142.355 119.705 142.449C119.758 142.543 119.834 142.617 119.933 142.671C120.032 142.725 120.151 142.751 120.289 142.751C120.427 142.751 120.546 142.725 120.646 142.671C120.745 142.617 120.821 142.543 120.874 142.449C120.927 142.355 120.954 142.247 120.954 142.126V140.506Z" fill="#1F2A37"/>
<path d="M75.9373 123.628V123.169H79.1464V123.628H77.8009V127.448H77.2828V123.628H75.9373Z" fill="#1F2A37"/>
<path d="M83.3783 125.308C83.3783 125.76 83.2968 126.15 83.1338 126.478C82.9709 126.807 82.7473 127.061 82.4632 127.239C82.179 127.417 81.8545 127.506 81.4895 127.506C81.1246 127.506 80.8001 127.417 80.5159 127.239C80.2318 127.061 80.0082 126.807 79.8453 126.478C79.6823 126.15 79.6008 125.76 79.6008 125.308C79.6008 124.857 79.6823 124.467 79.8453 124.138C80.0082 123.81 80.2318 123.556 80.5159 123.378C80.8001 123.199 81.1246 123.11 81.4895 123.11C81.8545 123.11 82.179 123.199 82.4632 123.378C82.7473 123.556 82.9709 123.81 83.1338 124.138C83.2968 124.467 83.3783 124.857 83.3783 125.308ZM82.8768 125.308C82.8768 124.938 82.8149 124.625 82.6909 124.37C82.5683 124.115 82.4019 123.922 82.1915 123.791C81.9826 123.661 81.7486 123.595 81.4895 123.595C81.2305 123.595 80.9958 123.661 80.7855 123.791C80.5765 123.922 80.4101 124.115 80.2861 124.37C80.1635 124.625 80.1023 124.938 80.1023 125.308C80.1023 125.679 80.1635 125.991 80.2861 126.246C80.4101 126.501 80.5765 126.694 80.7855 126.825C80.9958 126.956 81.2305 127.022 81.4895 127.022C81.7486 127.022 81.9826 126.956 82.1915 126.825C82.4019 126.694 82.5683 126.501 82.6909 126.246C82.8149 125.991 82.8768 125.679 82.8768 125.308Z" fill="#1F2A37"/>
<path d="M83.8374 123.628V123.169H87.0465V123.628H85.701V127.448H85.1829V123.628H83.8374Z" fill="#1F2A37"/>
<path d="M87.5219 127.448H86.9786L88.5498 123.169H89.0846L90.6558 127.448H90.1126L88.8339 123.846H88.8005L87.5219 127.448ZM87.7224 125.776H89.912V126.236H87.7224V125.776Z" fill="#1F2A37"/>
<path d="M91.3223 127.448V123.169H91.8404V126.988H93.8294V127.448H91.3223Z" fill="#1F2A37"/>
<path d="M133.371 127.982V122.634H133.714V127.982H133.371ZM134.524 124.238C134.499 124.027 134.398 123.862 134.219 123.745C134.041 123.628 133.822 123.57 133.563 123.57C133.374 123.57 133.208 123.6 133.066 123.662C132.925 123.723 132.815 123.807 132.736 123.915C132.658 124.022 132.619 124.144 132.619 124.28C132.619 124.394 132.646 124.493 132.7 124.575C132.756 124.656 132.827 124.723 132.914 124.777C133 124.83 133.09 124.874 133.185 124.909C133.28 124.942 133.367 124.97 133.446 124.991L133.881 125.108C133.992 125.137 134.116 125.177 134.253 125.229C134.391 125.28 134.522 125.351 134.648 125.44C134.774 125.527 134.879 125.64 134.961 125.778C135.043 125.916 135.084 126.085 135.084 126.286C135.084 126.517 135.024 126.726 134.903 126.913C134.783 127.099 134.607 127.248 134.376 127.358C134.146 127.468 133.867 127.523 133.538 127.523C133.232 127.523 132.966 127.473 132.742 127.374C132.519 127.275 132.344 127.138 132.216 126.961C132.089 126.784 132.017 126.578 132 126.344H132.535C132.549 126.506 132.604 126.64 132.698 126.746C132.794 126.85 132.916 126.928 133.062 126.98C133.209 127.03 133.368 127.055 133.538 127.055C133.736 127.055 133.914 127.023 134.071 126.959C134.228 126.893 134.353 126.803 134.445 126.687C134.537 126.57 134.583 126.434 134.583 126.278C134.583 126.135 134.543 126.02 134.464 125.931C134.384 125.842 134.28 125.769 134.15 125.713C134.021 125.658 133.881 125.609 133.73 125.567L133.204 125.417C132.87 125.321 132.605 125.183 132.41 125.005C132.215 124.827 132.117 124.594 132.117 124.305C132.117 124.066 132.182 123.857 132.312 123.678C132.443 123.499 132.618 123.359 132.838 123.261C133.06 123.16 133.307 123.11 133.58 123.11C133.856 123.11 134.101 123.16 134.315 123.258C134.53 123.356 134.7 123.49 134.825 123.66C134.952 123.83 135.019 124.022 135.026 124.238H134.524Z" fill="#1F2A37"/>
<path d="M137.123 127.982V122.634H137.466V127.982H137.123ZM138.276 124.238C138.251 124.027 138.149 123.862 137.971 123.745C137.793 123.628 137.574 123.57 137.315 123.57C137.126 123.57 136.96 123.6 136.818 123.662C136.677 123.723 136.567 123.807 136.488 123.915C136.41 124.022 136.371 124.144 136.371 124.28C136.371 124.394 136.398 124.493 136.452 124.575C136.508 124.656 136.579 124.723 136.665 124.777C136.752 124.83 136.842 124.874 136.937 124.909C137.032 124.942 137.119 124.97 137.198 124.991L137.633 125.108C137.744 125.137 137.868 125.177 138.005 125.229C138.142 125.28 138.274 125.351 138.399 125.44C138.526 125.527 138.631 125.64 138.713 125.778C138.795 125.916 138.836 126.085 138.836 126.286C138.836 126.517 138.776 126.726 138.654 126.913C138.535 127.099 138.359 127.248 138.128 127.358C137.898 127.468 137.619 127.523 137.29 127.523C136.984 127.523 136.718 127.473 136.494 127.374C136.271 127.275 136.096 127.138 135.968 126.961C135.841 126.784 135.769 126.578 135.752 126.344H136.287C136.301 126.506 136.355 126.64 136.45 126.746C136.546 126.85 136.667 126.928 136.814 126.98C136.961 127.03 137.12 127.055 137.29 127.055C137.488 127.055 137.665 127.023 137.823 126.959C137.98 126.893 138.105 126.803 138.197 126.687C138.289 126.57 138.335 126.434 138.335 126.278C138.335 126.135 138.295 126.02 138.216 125.931C138.136 125.842 138.032 125.769 137.902 125.713C137.773 125.658 137.633 125.609 137.482 125.567L136.956 125.417C136.621 125.321 136.357 125.183 136.162 125.005C135.967 124.827 135.869 124.594 135.869 124.305C135.869 124.066 135.934 123.857 136.064 123.678C136.195 123.499 136.37 123.359 136.59 123.261C136.812 123.16 137.059 123.11 137.332 123.11C137.608 123.11 137.853 123.16 138.067 123.258C138.282 123.356 138.452 123.49 138.577 123.66C138.704 123.83 138.771 124.022 138.778 124.238H138.276Z" fill="#1F2A37"/>
<path d="M140.875 127.982V122.634H141.217V127.982H140.875ZM142.028 124.238C142.003 124.027 141.901 123.862 141.723 123.745C141.545 123.628 141.326 123.57 141.067 123.57C140.878 123.57 140.712 123.6 140.57 123.662C140.429 123.723 140.319 123.807 140.24 123.915C140.162 124.022 140.123 124.144 140.123 124.28C140.123 124.394 140.15 124.493 140.204 124.575C140.26 124.656 140.331 124.723 140.417 124.777C140.504 124.83 140.594 124.874 140.689 124.909C140.784 124.942 140.871 124.97 140.95 124.991L141.385 125.108C141.496 125.137 141.62 125.177 141.756 125.229C141.894 125.28 142.026 125.351 142.151 125.44C142.278 125.527 142.383 125.64 142.465 125.778C142.547 125.916 142.588 126.085 142.588 126.286C142.588 126.517 142.527 126.726 142.406 126.913C142.286 127.099 142.111 127.248 141.88 127.358C141.65 127.468 141.371 127.523 141.042 127.523C140.735 127.523 140.47 127.473 140.246 127.374C140.023 127.275 139.848 127.138 139.719 126.961C139.593 126.784 139.521 126.578 139.504 126.344H140.039C140.053 126.506 140.107 126.64 140.202 126.746C140.298 126.85 140.419 126.928 140.566 126.98C140.713 127.03 140.872 127.055 141.042 127.055C141.24 127.055 141.417 127.023 141.575 126.959C141.732 126.893 141.857 126.803 141.949 126.687C142.041 126.57 142.087 126.434 142.087 126.278C142.087 126.135 142.047 126.02 141.967 125.931C141.888 125.842 141.784 125.769 141.654 125.713C141.525 125.658 141.385 125.609 141.234 125.567L140.708 125.417C140.373 125.321 140.109 125.183 139.914 125.005C139.719 124.827 139.621 124.594 139.621 124.305C139.621 124.066 139.686 123.857 139.815 123.678C139.946 123.499 140.122 123.359 140.342 123.261C140.563 123.16 140.811 123.11 141.084 123.11C141.359 123.11 141.605 123.16 141.819 123.258C142.034 123.356 142.204 123.49 142.329 123.66C142.456 123.83 142.523 124.022 142.529 124.238H142.028Z" fill="#1F2A37"/>
<path d="M99.1905 91.0747L110.19 102.075L128.524 80.0747" stroke="#234F68" stroke-width="7" stroke-linecap="round" stroke-linejoin="round"/>
<defs>
<filter id="filter0_dd_31_270" x="38.0001" y="41" width="137" height="155" filterUnits="userSpaceOnUse" color-interpolation-filters="sRGB">
<feFlood flood-opacity="0" result="BackgroundImageFix"/>
<feColorMatrix in="SourceAlpha" type="matrix" values="0 0 0 0 0 0 0 0 0 0 0 0 0 0 0 0 0 0 127 0" result="hardAlpha"/>
<feMorphology radius="4" operator="erode" in="SourceAlpha" result="effect1_dropShadow_31_270"/>
<feOffset dy="20"/>
<feGaussianBlur stdDeviation="12"/>
<feComposite in2="hardAlpha" operator="out"/>
<feColorMatrix type="matrix" values="0 0 0 0 0.121569 0 0 0 0 0.164706 0 0 0 0 0.215686 0 0 0 0.08 0"/>
<feBlend mode="normal" in2="BackgroundImageFix" result="effect1_dropShadow_31_270"/>
<feColorMatrix in="SourceAlpha" type="matrix" values="0 0 0 0 0 0 0 0 0 0 0 0 0 0 0 0 0 0 127 0" result="hardAlpha"/>
<feMorphology radius="4" operator="erode" in="SourceAlpha" result="effect2_dropShadow_31_270"/>
<feOffset dy="8"/>
<feGaussianBlur stdDeviation="4"/>
<feComposite in2="hardAlpha" operator="out"/>
<feColorMatrix type="matrix" values="0 0 0 0 0.121569 0 0 0 0 0.164706 0 0 0 0 0.215686 0 0 0 0.03 0"/>
<feBlend mode="normal" in2="effect1_dropShadow_31_270" result="effect2_dropShadow_31_270"/>
<feBlend mode="normal" in="SourceGraphic" in2="effect2_dropShadow_31_270" result="shape"/>
</filter>
</defs>
</svg>
