<svg width="99" height="21" viewBox="0 0 99 21" fill="none" xmlns="http://www.w3.org/2000/svg">
<path d="M4.85997 15.76C3.68664 15.76 2.77997 15.64 2.13997 15.4C1.5133 15.1467 1.0733 14.76 0.819971 14.24C0.579971 13.7067 0.446637 13.0267 0.419971 12.2L-2.92361e-05 1.16003H2.35997L2.77997 11.14C2.80664 11.7667 2.86664 12.24 2.95997 12.56C3.06664 12.88 3.27997 13.1 3.59997 13.22C3.91997 13.34 4.40664 13.4 5.05997 13.4C5.48664 13.4 5.7933 13.5134 5.97997 13.74C6.16664 13.9534 6.25997 14.22 6.25997 14.54C6.25997 14.8734 6.1333 15.16 5.87997 15.4C5.63997 15.64 5.29997 15.76 4.85997 15.76ZM5.1645 2.66003V1.38003L9.7845 3.29018e-05V1.34003L5.1645 2.66003ZM5.1645 4.76003V3.48003L9.7845 2.10003V3.44003L5.1645 4.76003ZM4.87231 15.76L5.07231 13.4C5.68565 13.4 6.17231 13.36 6.53231 13.28C6.89231 13.2 7.14565 13.0467 7.29231 12.82C7.45231 12.58 7.53231 12.24 7.53231 11.8C7.53231 11.44 7.47898 11.0134 7.37231 10.52C7.27898 10.0267 7.14565 9.5067 6.97231 8.96003C6.81231 8.41337 6.64565 7.90003 6.47231 7.42003L8.79231 6.72003C8.96565 7.16003 9.12565 7.67337 9.27231 8.26003C9.43231 8.83337 9.56565 9.42003 9.67231 10.02C9.79231 10.6067 9.85231 11.16 9.85231 11.68C9.85231 12.3334 9.77231 12.8934 9.61231 13.36C9.45231 13.8267 9.22565 14.22 8.93231 14.54C8.65231 14.8467 8.30565 15.0934 7.89231 15.28C7.47898 15.4534 7.01898 15.58 6.51231 15.66C6.00565 15.7267 5.45898 15.76 4.87231 15.76ZM7.21231 20.02C6.86565 20.02 6.57231 19.9 6.33231 19.66C6.09231 19.42 5.97231 19.1334 5.97231 18.8C5.97231 18.4534 6.09231 18.1534 6.33231 17.9C6.57231 17.6467 6.86565 17.52 7.21231 17.52C7.55898 17.52 7.85231 17.6467 8.09231 17.9C8.34565 18.1534 8.47231 18.4534 8.47231 18.8C8.47231 19.1334 8.34565 19.42 8.09231 19.66C7.85231 19.9 7.55898 20.02 7.21231 20.02ZM16.9889 15.76C15.8155 15.76 14.9089 15.64 14.2689 15.4C13.6422 15.1467 13.2022 14.76 12.9489 14.24C12.7089 13.7067 12.5755 13.0267 12.5489 12.2L12.1289 1.16003H14.4889L14.9089 11.14C14.9355 11.7667 14.9955 12.24 15.0889 12.56C15.1955 12.88 15.4089 13.1 15.7289 13.22C16.0489 13.34 16.5355 13.4 17.1889 13.4C17.6155 13.4 17.9222 13.5134 18.1089 13.74C18.2955 13.9534 18.3889 14.22 18.3889 14.54C18.3889 14.8734 18.2622 15.16 18.0089 15.4C17.7689 15.64 17.4289 15.76 16.9889 15.76ZM17.0012 15.76L17.2012 13.4C17.6412 13.4 17.9946 13.3667 18.2612 13.3C18.5412 13.2334 18.7679 13.0734 18.9412 12.82C19.1279 12.5534 19.2946 12.16 19.4412 11.64C19.5879 11.1067 19.7546 10.3734 19.9412 9.44003L22.1212 9.90003C22.0679 10.2067 21.9946 10.5867 21.9012 11.04C21.8079 11.4934 21.7612 11.8934 21.7612 12.24C21.7612 12.48 21.8079 12.6867 21.9012 12.86C22.0079 13.0334 22.1879 13.1667 22.4412 13.26C22.6946 13.3534 23.0412 13.4 23.4812 13.4C23.8412 13.4 24.1479 13.3667 24.4012 13.3C24.6546 13.22 24.8679 13.0534 25.0412 12.8C25.2146 12.5467 25.3679 12.14 25.5012 11.58C25.6346 11.02 25.7746 10.26 25.9212 9.30003L28.1412 9.68003C28.0879 9.96003 28.0346 10.2734 27.9812 10.62C27.9279 10.9667 27.8812 11.3 27.8412 11.62C27.8012 11.9267 27.7812 12.18 27.7812 12.38C27.7812 12.5534 27.8279 12.72 27.9212 12.88C28.0146 13.04 28.1946 13.1667 28.4612 13.26C28.7279 13.3534 29.1146 13.4 29.6212 13.4C30.2479 13.4 30.7079 13.2667 31.0012 13C31.2946 12.7334 31.4412 12.3267 31.4412 11.78C31.4412 11.4734 31.4346 11.1467 31.4212 10.8C31.4079 10.44 31.3812 10.0467 31.3412 9.62003C31.3146 9.18003 31.2612 8.68003 31.1812 8.12003L33.3412 7.96003C33.4212 9.08003 33.5146 9.99337 33.6212 10.7C33.7412 11.4067 33.9012 11.96 34.1012 12.36C34.3146 12.7467 34.5879 13.02 34.9212 13.18C35.2679 13.3267 35.7279 13.4 36.3012 13.4C36.7146 13.4 37.0146 13.5134 37.2012 13.74C37.3879 13.9534 37.4812 14.22 37.4812 14.54C37.4812 14.8734 37.3612 15.16 37.1212 15.4C36.8812 15.64 36.5412 15.76 36.1012 15.76C35.7012 15.76 35.3146 15.72 34.9412 15.64C34.5679 15.5467 34.2212 15.4067 33.9012 15.22C33.5812 15.02 33.3012 14.76 33.0612 14.44C32.8212 14.1067 32.6412 13.7067 32.5212 13.24L32.8812 13.36C32.7079 14 32.4612 14.4934 32.1412 14.84C31.8212 15.1867 31.4346 15.4267 30.9812 15.56C30.5279 15.6934 30.0079 15.76 29.4212 15.76C28.8346 15.76 28.3212 15.6867 27.8812 15.54C27.4546 15.38 27.1146 15.1334 26.8612 14.8C26.6212 14.4534 26.4812 13.9934 26.4412 13.42H27.1212C26.8679 14.1 26.5746 14.6067 26.2412 14.94C25.9212 15.2734 25.5279 15.4934 25.0612 15.6C24.6079 15.7067 24.0212 15.76 23.3012 15.76C22.8879 15.76 22.4746 15.7134 22.0612 15.62C21.6479 15.5134 21.2746 15.2867 20.9412 14.94C20.6212 14.5934 20.4012 14.0534 20.2812 13.32L21.1812 13.24C20.9279 13.9867 20.6012 14.54 20.2012 14.9C19.8012 15.2467 19.3346 15.48 18.8012 15.6C18.2679 15.7067 17.6679 15.76 17.0012 15.76ZM36.1028 15.76L36.3028 13.4C37.0094 13.4 37.7094 13.3534 38.4028 13.26C39.0961 13.1667 39.7695 13.0334 40.4228 12.86C41.0761 12.6867 41.7028 12.4667 42.3028 12.2C42.9028 11.9334 43.4695 11.62 44.0028 11.26C43.6295 10.9934 43.2095 10.7667 42.7428 10.58C42.2895 10.38 41.7961 10.2334 41.2628 10.14C40.7295 10.0334 40.1628 9.98003 39.5628 9.98003C39.3494 9.98003 39.1361 9.9867 38.9228 10C38.7094 10.0134 38.4894 10.04 38.2628 10.08C38.0494 10.1067 37.8228 10.1467 37.5828 10.2L37.2228 7.92003C37.5961 7.81337 37.9828 7.73337 38.3828 7.68003C38.7961 7.6267 39.1695 7.60003 39.5028 7.60003C40.2094 7.60003 40.8561 7.68003 41.4428 7.84003C42.0295 8.00003 42.5695 8.20003 43.0628 8.44003C43.5561 8.68003 44.0161 8.92003 44.4428 9.16003C44.8828 9.40003 45.3028 9.6067 45.7028 9.78003C46.1028 9.94003 46.5028 10.02 46.9028 10.02H47.5228L47.7628 12.22C47.1895 12.2334 46.6561 12.3334 46.1628 12.52C45.6695 12.6934 45.1828 12.92 44.7028 13.2C44.2361 13.4667 43.7361 13.7467 43.2028 14.04C42.6695 14.3334 42.0695 14.6134 41.4028 14.88C40.7361 15.1334 39.9694 15.3467 39.1028 15.52C38.2361 15.68 37.2361 15.76 36.1028 15.76ZM53.9089 15.32C53.9089 15.0134 53.9355 14.66 53.9889 14.26C54.0422 13.86 54.1355 13.42 54.2689 12.94C54.4155 12.4467 54.6155 11.9134 54.8689 11.34L56.9489 12.08C56.8022 12.48 56.6755 12.8467 56.5689 13.18C56.4622 13.5134 56.3822 13.8267 56.3289 14.12C56.2889 14.4134 56.2689 14.6934 56.2689 14.96C56.2689 15.6 56.4289 16.1467 56.7489 16.6C57.0689 17.0534 57.5022 17.4 58.0489 17.64C58.5955 17.88 59.2089 18 59.8889 18C61.0889 18 62.0155 17.8 62.6689 17.4C63.3222 17 63.7755 16.4134 64.0289 15.64C64.2822 14.8534 64.3822 13.9 64.3289 12.78L63.9089 1.16003H66.2889L66.6089 10.88C66.6355 11.5467 66.7355 12.0667 66.9089 12.44C67.0822 12.8 67.3355 13.0534 67.6689 13.2C68.0022 13.3334 68.4155 13.4 68.9089 13.4C69.3355 13.4 69.6355 13.5134 69.8089 13.74C69.9955 13.9534 70.0889 14.22 70.0889 14.54C70.0889 14.8734 69.9622 15.16 69.7089 15.4C69.4689 15.64 69.1355 15.76 68.7089 15.76C68.3755 15.76 68.0489 15.7134 67.7289 15.62C67.4089 15.5267 67.1155 15.3934 66.8489 15.22C66.5955 15.0467 66.3755 14.8267 66.1889 14.56C66.0022 14.2934 65.8755 13.98 65.8089 13.62L66.6889 13.5C66.6755 14.6067 66.5222 15.58 66.2289 16.42C65.9489 17.26 65.5289 17.9667 64.9689 18.54C64.4089 19.1134 63.6955 19.5467 62.8289 19.84C61.9755 20.1334 60.9689 20.28 59.8089 20.28C59.0089 20.28 58.2489 20.1734 57.5289 19.96C56.8222 19.76 56.1955 19.4467 55.6489 19.02C55.1155 18.6067 54.6889 18.0934 54.3689 17.48C54.0622 16.8667 53.9089 16.1467 53.9089 15.32ZM81.6604 15.76C81.0604 15.76 80.5071 15.72 80.0004 15.64C79.4938 15.5467 79.0338 15.3934 78.6204 15.18C78.2071 14.9534 77.8471 14.64 77.5404 14.24C77.2338 13.84 76.9871 13.3267 76.8004 12.7L78.2204 11.64C78.4338 12.1067 78.6938 12.4667 79.0004 12.72C79.3204 12.9734 79.7071 13.1534 80.1604 13.26C80.6271 13.3534 81.1938 13.4 81.8604 13.4C82.2738 13.4 82.5671 13.5134 82.7404 13.74C82.9271 13.9534 83.0204 14.22 83.0204 14.54C83.0204 14.8734 82.9004 15.16 82.6604 15.4C82.4204 15.64 82.0871 15.76 81.6604 15.76ZM68.7004 15.76L68.9004 13.4C69.6071 13.4 70.3071 13.3534 71.0004 13.26C71.6938 13.1667 72.3671 13.0334 73.0204 12.86C73.6738 12.6867 74.3004 12.4667 74.9004 12.2C75.5004 11.9334 76.0671 11.62 76.6004 11.26C76.2271 10.9934 75.8071 10.7667 75.3404 10.58C74.8871 10.38 74.3938 10.2334 73.8604 10.14C73.3271 10.0334 72.7604 9.98003 72.1604 9.98003C71.9471 9.98003 71.7338 9.9867 71.5204 10C71.3071 10.0134 71.0871 10.04 70.8604 10.08C70.6471 10.1067 70.4204 10.1467 70.1804 10.2L69.8204 7.92003C70.1938 7.81337 70.5804 7.73337 70.9804 7.68003C71.3938 7.6267 71.7671 7.60003 72.1004 7.60003C72.8071 7.60003 73.4538 7.68003 74.0404 7.84003C74.6271 8.00003 75.1671 8.20003 75.6604 8.44003C76.1538 8.68003 76.6138 8.92003 77.0404 9.16003C77.4804 9.40003 77.9004 9.6067 78.3004 9.78003C78.7004 9.94003 79.1004 10.02 79.5004 10.02H80.1204L80.3604 12.22C79.7871 12.2334 79.2538 12.3334 78.7604 12.52C78.2671 12.6934 77.7804 12.92 77.3004 13.2C76.8338 13.4667 76.3338 13.7467 75.8004 14.04C75.2671 14.3334 74.6671 14.6134 74.0004 14.88C73.3338 15.1334 72.5671 15.3467 71.7004 15.52C70.8338 15.68 69.8338 15.76 68.7004 15.76ZM74.1804 19.92C73.8338 19.92 73.5404 19.8 73.3004 19.56C73.0604 19.32 72.9404 19.0334 72.9404 18.7C72.9404 18.3534 73.0604 18.0534 73.3004 17.8C73.5404 17.5467 73.8338 17.42 74.1804 17.42C74.5271 17.42 74.8204 17.5467 75.0604 17.8C75.3138 18.0534 75.4404 18.3534 75.4404 18.7C75.4404 19.0334 75.3138 19.32 75.0604 19.56C74.8204 19.8 74.5271 19.92 74.1804 19.92ZM81.6692 15.76L81.8692 13.4C82.3092 13.4 82.6625 13.3667 82.9292 13.3C83.2092 13.2334 83.4359 13.0734 83.6092 12.82C83.7959 12.5534 83.9625 12.16 84.1092 11.64C84.2559 11.1067 84.4225 10.3734 84.6092 9.44003L86.7892 9.90003C86.7492 10.1134 86.6959 10.36 86.6292 10.64C86.5759 10.9067 86.5292 11.1867 86.4892 11.48C86.4492 11.76 86.4292 12.0134 86.4292 12.24C86.4292 12.6 86.5492 12.8867 86.7892 13.1C87.0292 13.3 87.4825 13.4 88.1492 13.4C88.5092 13.4 88.8159 13.3667 89.0692 13.3C89.3225 13.22 89.5359 13.0534 89.7092 12.8C89.8825 12.5467 90.0359 12.14 90.1692 11.58C90.3025 11.02 90.4425 10.26 90.5892 9.30003L92.8092 9.68003C92.7559 9.96003 92.7025 10.2734 92.6492 10.62C92.5959 10.9667 92.5492 11.3 92.5092 11.62C92.4692 11.9267 92.4492 12.18 92.4492 12.38C92.4492 12.5534 92.4959 12.72 92.5892 12.88C92.6825 13.04 92.8625 13.1667 93.1292 13.26C93.3959 13.3534 93.7892 13.4 94.3092 13.4C94.6692 13.4 94.9825 13.3534 95.2492 13.26C95.5292 13.1667 95.7425 13.0067 95.8892 12.78C96.0359 12.5534 96.1092 12.2467 96.1092 11.86C96.1092 11.3534 95.9892 10.7067 95.7492 9.92003C95.5225 9.13337 95.2625 8.32003 94.9692 7.48003L97.3292 6.74003C97.5292 7.26003 97.7092 7.8267 97.8692 8.44003C98.0292 9.04003 98.1559 9.63337 98.2492 10.22C98.3559 10.7934 98.4092 11.3 98.4092 11.74C98.4092 12.3934 98.3092 12.9734 98.1092 13.48C97.9225 13.9734 97.6559 14.3934 97.3092 14.74C96.9625 15.0734 96.5425 15.3267 96.0492 15.5C95.5559 15.6734 95.0092 15.76 94.4092 15.76C93.6892 15.76 93.0959 15.6867 92.6292 15.54C92.1759 15.38 91.8292 15.1334 91.5892 14.8C91.3492 14.4534 91.1892 13.9934 91.1092 13.42H91.7892C91.5225 14.1267 91.2292 14.6467 90.9092 14.98C90.5892 15.3134 90.2025 15.5267 89.7492 15.62C89.2959 15.7134 88.7225 15.76 88.0292 15.76C87.6292 15.76 87.2092 15.7134 86.7692 15.62C86.3425 15.5134 85.9625 15.2867 85.6292 14.94C85.3092 14.58 85.0825 14.04 84.9492 13.32L85.8492 13.24C85.5959 13.9867 85.2692 14.54 84.8692 14.9C84.4692 15.2467 84.0025 15.48 83.4692 15.6C82.9359 15.7067 82.3359 15.76 81.6692 15.76Z" fill="#1F2A37"/>
</svg>
