<svg width="122" height="20" viewBox="0 0 122 20" fill="none" xmlns="http://www.w3.org/2000/svg">
<path d="M2.94034 -4.48227e-05L2.70596 10.2698H0.41903L0.191757 -4.48227e-05H2.94034ZM1.5625 14.7017C1.13162 14.7017 0.762307 14.5501 0.454541 14.2471C0.151511 13.9441 -4.05312e-06 13.5748 -4.05312e-06 13.1392C-4.05312e-06 12.713 0.151511 12.3484 0.454541 12.0454C0.762307 11.7424 1.13162 11.5909 1.5625 11.5909C1.9839 11.5909 2.34848 11.7424 2.65625 12.0454C2.96875 12.3484 3.125 12.713 3.125 13.1392C3.125 13.428 3.05161 13.6908 2.90483 13.9275C2.76278 14.1643 2.57339 14.3536 2.33664 14.4957C2.10464 14.633 1.84659 14.7017 1.5625 14.7017ZM17.8258 14.9654L18.3458 12.6054C19.6258 12.6054 20.6658 12.5654 21.4658 12.4854C22.2792 12.3921 22.8992 12.2254 23.3258 11.9854C23.7658 11.7454 24.0592 11.4187 24.2058 11.0054C24.3658 10.5787 24.4258 10.0454 24.3858 9.40541L23.9658 0.0454097H26.3258L26.7458 9.42541C26.7858 10.1854 26.8858 10.7721 27.0458 11.1854C27.2058 11.5987 27.4392 11.8854 27.7458 12.0454C28.0658 12.2054 28.4458 12.2854 28.8858 12.2854C29.2992 12.2854 29.5992 12.3987 29.7858 12.6254C29.9725 12.8387 30.0658 13.1054 30.0658 13.4254C30.0658 13.7587 29.9392 14.0454 29.6858 14.2854C29.4458 14.5254 29.1125 14.6454 28.6858 14.6454C28.0858 14.6454 27.5658 14.5654 27.1258 14.4054C26.6992 14.2321 26.3458 13.9787 26.0658 13.6454C25.7992 13.3121 25.6258 12.8854 25.5458 12.3654L26.2658 12.3854C25.9725 12.9454 25.5725 13.3987 25.0658 13.7454C24.5725 14.0921 23.9725 14.3587 23.2658 14.5454C22.5592 14.7187 21.7525 14.8321 20.8458 14.8854C19.9525 14.9521 18.9458 14.9787 17.8258 14.9654ZM17.0258 10.3254L16.5658 8.60541C17.0725 8.47208 17.4792 8.35874 17.7858 8.26541C18.1058 8.17208 18.3392 8.07874 18.4858 7.98541C18.6458 7.87874 18.7258 7.77874 18.7258 7.68541C18.7258 7.55208 18.6592 7.41874 18.5258 7.28541C18.3925 7.15208 18.2392 7.00541 18.0658 6.84541C17.9058 6.68541 17.7592 6.50541 17.6258 6.30541C17.4925 6.10541 17.4258 5.86541 17.4258 5.58541C17.4258 5.29208 17.5125 5.00541 17.6858 4.72541C17.8592 4.43208 18.1392 4.14541 18.5258 3.86541C18.9258 3.57208 19.4658 3.27874 20.1458 2.98541L20.9258 4.52541C20.3392 4.77874 19.9325 4.99874 19.7058 5.18541C19.4792 5.35874 19.3658 5.51874 19.3658 5.66541C19.3658 5.78541 19.4325 5.92541 19.5658 6.08541C19.6992 6.23208 19.8458 6.39874 20.0058 6.58541C20.1792 6.75874 20.3325 6.95874 20.4658 7.18541C20.5992 7.41208 20.6658 7.65874 20.6658 7.92541C20.6658 8.12541 20.6192 8.33208 20.5258 8.54541C20.4458 8.75874 20.2792 8.96541 20.0258 9.16541C19.7858 9.36541 19.4258 9.56541 18.9458 9.76541C18.4658 9.95208 17.8258 10.1387 17.0258 10.3254ZM17.8258 14.9654C16.4792 14.9654 15.3258 14.8654 14.3658 14.6654C13.4192 14.4787 12.6392 14.1987 12.0258 13.8254C11.4125 13.4521 10.9592 12.9987 10.6658 12.4654C10.3725 11.9321 10.2258 11.3187 10.2258 10.6254C10.2258 10.2387 10.2592 9.84541 10.3258 9.44541C10.3925 9.03208 10.4792 8.63208 10.5858 8.24541C10.6925 7.84541 10.7925 7.47874 10.8858 7.14541L13.0058 7.66541C12.9525 7.89208 12.8925 8.14541 12.8258 8.42541C12.7592 8.69208 12.6992 8.95874 12.6458 9.22541C12.6058 9.49208 12.5858 9.73874 12.5858 9.96541C12.5858 10.5254 12.7592 11.0054 13.1058 11.4054C13.4658 11.8054 14.0658 12.1054 14.9058 12.3054C15.7458 12.5054 16.8925 12.6054 18.3458 12.6054L18.7458 14.3254L17.8258 14.9654ZM28.6879 14.6454L28.8879 12.2854C29.6879 12.2854 30.3012 12.2521 30.7279 12.1854C31.1545 12.1054 31.4545 11.9521 31.6279 11.7254C31.8145 11.4854 31.9079 11.1387 31.9079 10.6854C31.9079 10.3254 31.8545 9.89874 31.7479 9.40541C31.6412 8.91208 31.5079 8.39208 31.3479 7.84541C31.1879 7.29874 31.0145 6.78541 30.8279 6.30541L33.1679 5.60541C33.3412 6.04541 33.5012 6.55874 33.6479 7.14541C33.8079 7.71874 33.9412 8.30541 34.0479 8.90541C34.1545 9.49208 34.2079 10.0454 34.2079 10.5654C34.2079 11.3787 34.0812 12.0521 33.8279 12.5854C33.5879 13.1187 33.2279 13.5387 32.7479 13.8454C32.2812 14.1387 31.7012 14.3454 31.0079 14.4654C30.3279 14.5854 29.5545 14.6454 28.6879 14.6454ZM33.7079 3.80541C33.3612 3.80541 33.0679 3.68541 32.8279 3.44541C32.5879 3.20541 32.4679 2.91208 32.4679 2.56541C32.4679 2.23208 32.5879 1.94541 32.8279 1.70541C33.0679 1.45208 33.3612 1.32541 33.7079 1.32541C34.0412 1.32541 34.3279 1.45208 34.5679 1.70541C34.8079 1.94541 34.9279 2.23208 34.9279 2.56541C34.9279 2.91208 34.8079 3.20541 34.5679 3.44541C34.3279 3.68541 34.0412 3.80541 33.7079 3.80541ZM30.5279 3.78541C30.1812 3.78541 29.8812 3.66541 29.6279 3.42541C29.3879 3.18541 29.2679 2.89874 29.2679 2.56541C29.2679 2.23208 29.3879 1.93874 29.6279 1.68541C29.8679 1.43208 30.1679 1.30541 30.5279 1.30541C30.8612 1.30541 31.1412 1.43208 31.3679 1.68541C31.6079 1.93874 31.7279 2.23208 31.7279 2.56541C31.7279 2.89874 31.6079 3.18541 31.3679 3.42541C31.1279 3.66541 30.8479 3.78541 30.5279 3.78541ZM36.1066 13.7054L37.0266 11.6054C37.4266 11.8054 37.8599 11.9721 38.3266 12.1054C38.7933 12.2254 39.2866 12.2854 39.8066 12.2854C40.3533 12.2854 40.7933 12.2321 41.1266 12.1254C41.4733 12.0187 41.7266 11.8654 41.8866 11.6654C42.0599 11.4521 42.1466 11.2054 42.1466 10.9254C42.1466 10.6854 42.0799 10.3721 41.9466 9.98541C41.8266 9.58541 41.5799 9.05874 41.2066 8.40541C40.8466 7.73874 40.3066 6.89874 39.5866 5.88541L41.5866 4.56541C42.2533 5.49874 42.8066 6.38541 43.2466 7.22541C43.6999 8.05208 44.0399 8.81208 44.2666 9.50541C44.5066 10.1854 44.6266 10.7787 44.6266 11.2854C44.6266 11.9121 44.4599 12.4787 44.1266 12.9854C43.7933 13.4921 43.2866 13.8987 42.6066 14.2054C41.9266 14.5121 41.0533 14.6654 39.9866 14.6654C39.5733 14.6654 39.1333 14.6254 38.6666 14.5454C38.1999 14.4787 37.7399 14.3787 37.2866 14.2454C36.8466 14.0987 36.4533 13.9187 36.1066 13.7054ZM46.5857 19.1454L46.1057 16.7854C46.9857 16.6654 47.7723 16.5187 48.4657 16.3454C49.159 16.1721 49.7457 15.9254 50.2257 15.6054C50.719 15.2854 51.0857 14.8587 51.3257 14.3254C51.579 13.7787 51.7057 13.0854 51.7057 12.2454C51.7057 11.4187 51.5657 10.7454 51.2857 10.2254C51.019 9.70541 50.659 9.44541 50.2057 9.44541C49.9257 9.44541 49.679 9.54541 49.4657 9.74541C49.2657 9.94541 49.1123 10.1987 49.0057 10.5054C48.899 10.7987 48.8457 11.0854 48.8457 11.3654C48.8457 11.5387 48.8857 11.6987 48.9657 11.8454C49.0457 11.9787 49.1923 12.0921 49.4057 12.1854C49.6323 12.2654 49.9523 12.3187 50.3657 12.3454C50.7923 12.3721 51.3523 12.3521 52.0457 12.2854H55.7257C56.139 12.2854 56.439 12.3987 56.6257 12.6254C56.8123 12.8387 56.9057 13.1054 56.9057 13.4254C56.9057 13.7587 56.779 14.0454 56.5257 14.2854C56.2857 14.5254 55.9523 14.6454 55.5257 14.6454H50.2857C49.539 14.6454 48.879 14.5521 48.3057 14.3654C47.7457 14.1787 47.3057 13.8787 46.9857 13.4654C46.6657 13.0387 46.5057 12.4787 46.5057 11.7854C46.5057 11.1987 46.6057 10.6254 46.8057 10.0654C47.0057 9.49208 47.2723 8.97208 47.6057 8.50541C47.9523 8.03874 48.359 7.67208 48.8257 7.40541C49.2923 7.12541 49.799 6.98541 50.3457 6.98541C51.079 6.98541 51.719 7.20541 52.2657 7.64541C52.8257 8.08541 53.2657 8.69874 53.5857 9.48541C53.9057 10.2587 54.0657 11.1587 54.0657 12.1854C54.0657 13.5854 53.7723 14.7787 53.1857 15.7654C52.599 16.7654 51.7457 17.5454 50.6257 18.1054C49.5057 18.6787 48.159 19.0254 46.5857 19.1454ZM55.4838 14.6454L55.6838 12.2854C56.5638 12.2854 57.3638 12.2187 58.0838 12.0854C58.8171 11.9387 59.4705 11.7521 60.0438 11.5254C60.6305 11.2987 61.1238 11.0321 61.5238 10.7254C61.9238 10.4187 62.2238 10.0987 62.4238 9.76541C62.6371 9.43208 62.7438 9.10541 62.7438 8.78541C62.7438 8.61208 62.6905 8.44541 62.5838 8.28541C62.4905 8.11208 62.3238 7.97208 62.0838 7.86541C61.8571 7.75874 61.5438 7.70541 61.1438 7.70541C60.9305 7.70541 60.6771 7.73208 60.3838 7.78541C60.1038 7.83874 59.8238 7.91874 59.5438 8.02541C59.2771 8.11874 59.0371 8.23874 58.8238 8.38541C59.1438 8.62541 59.4638 8.89874 59.7838 9.20541C60.1038 9.51208 60.4305 9.83874 60.7638 10.1854C61.0971 10.5321 61.4171 10.8854 61.7238 11.2454C62.0038 11.4054 62.3238 11.5521 62.6838 11.6854C63.0438 11.8187 63.4305 11.9321 63.8438 12.0254C64.2571 12.1054 64.6905 12.1721 65.1438 12.2254C65.5971 12.2654 66.0571 12.2854 66.5238 12.2854C66.9371 12.2854 67.2371 12.3987 67.4238 12.6254C67.6105 12.8387 67.7038 13.1054 67.7038 13.4254C67.7038 13.7587 67.5771 14.0454 67.3238 14.2854C67.0838 14.5254 66.7505 14.6454 66.3238 14.6454C65.3771 14.6454 64.5038 14.5721 63.7038 14.4254C62.9038 14.2654 62.1705 14.0321 61.5038 13.7254C60.8505 13.4054 60.2638 13.0187 59.7438 12.5654C59.5571 12.2721 59.3238 11.9721 59.0438 11.6654C58.7638 11.3454 58.4638 11.0321 58.1438 10.7254C57.8238 10.4187 57.5105 10.1587 57.2038 9.94541C57.1371 9.87874 57.0571 9.74541 56.9638 9.54541C56.8838 9.33208 56.8105 9.11208 56.7438 8.88541C56.6905 8.64541 56.6638 8.47208 56.6638 8.36541C56.6638 8.09874 56.7971 7.80541 57.0638 7.48541C57.3438 7.16541 57.7171 6.86541 58.1838 6.58541C58.6505 6.29208 59.1705 6.05208 59.7438 5.86541C60.3171 5.67874 60.9038 5.58541 61.5038 5.58541C62.3171 5.58541 62.9838 5.70541 63.5038 5.94541C64.0238 6.18541 64.4105 6.51208 64.6638 6.92541C64.9305 7.32541 65.0638 7.77874 65.0638 8.28541C65.0638 8.89874 64.9171 9.51208 64.6238 10.1254C64.3438 10.7387 63.9305 11.3187 63.3838 11.8654C62.8505 12.3987 62.1905 12.8787 61.4038 13.3054C60.6305 13.7187 59.7438 14.0454 58.7438 14.2854C57.7438 14.5254 56.6571 14.6454 55.4838 14.6454ZM66.3246 14.6454L66.5246 12.2854C67.1379 12.2854 67.6246 12.2454 67.9846 12.1654C68.3446 12.0854 68.5979 11.9321 68.7446 11.7054C68.9046 11.4654 68.9846 11.1254 68.9846 10.6854C68.9846 10.3254 68.9312 9.89874 68.8246 9.40541C68.7312 8.91208 68.5979 8.39208 68.4246 7.84541C68.2646 7.29874 68.0979 6.78541 67.9246 6.30541L70.2446 5.60541C70.4179 6.04541 70.5779 6.55874 70.7246 7.14541C70.8846 7.71874 71.0179 8.30541 71.1246 8.90541C71.2446 9.49208 71.3046 10.0454 71.3046 10.5654C71.3046 11.2187 71.2246 11.7787 71.0646 12.2454C70.9046 12.7121 70.6779 13.1054 70.3846 13.4254C70.1046 13.7321 69.7579 13.9787 69.3446 14.1654C68.9312 14.3387 68.4712 14.4654 67.9646 14.5454C67.4579 14.6121 66.9112 14.6454 66.3246 14.6454ZM68.6646 18.9054C68.3179 18.9054 68.0246 18.7854 67.7846 18.5454C67.5446 18.3054 67.4246 18.0187 67.4246 17.6854C67.4246 17.3387 67.5446 17.0387 67.7846 16.7854C68.0246 16.5321 68.3179 16.4054 68.6646 16.4054C69.0112 16.4054 69.3046 16.5321 69.5446 16.7854C69.7979 17.0387 69.9246 17.3387 69.9246 17.6854C69.9246 18.0187 69.7979 18.3054 69.5446 18.5454C69.3046 18.7854 69.0112 18.9054 68.6646 18.9054ZM83.4021 14.6454C82.2287 14.6454 81.3221 14.5254 80.6821 14.2854C80.0554 14.0321 79.6154 13.6454 79.3621 13.1254C79.1221 12.5921 78.9887 11.9121 78.9621 11.0854L78.5421 0.0454097H80.9021L81.3221 10.0254C81.3487 10.6521 81.4087 11.1254 81.5021 11.4454C81.6087 11.7654 81.8221 11.9854 82.1421 12.1054C82.4621 12.2254 82.9487 12.2854 83.6021 12.2854C84.0287 12.2854 84.3354 12.3987 84.5221 12.6254C84.7087 12.8387 84.8021 13.1054 84.8021 13.4254C84.8021 13.7587 84.6754 14.0454 84.4221 14.2854C84.1821 14.5254 83.8421 14.6454 83.4021 14.6454ZM84.6832 3.54541V2.26541L89.3032 0.885409V2.22541L84.6832 3.54541ZM84.6832 5.64541V4.36541L89.3032 2.98541V4.32541L84.6832 5.64541ZM83.4144 14.6454L83.6144 12.2854C84.1477 12.2854 84.5677 12.2387 84.8744 12.1454C85.1811 12.0387 85.4211 11.8454 85.5944 11.5654C85.7677 11.2721 85.9144 10.8521 86.0344 10.3054C86.1677 9.74541 86.3077 9.01208 86.4544 8.10541L88.6744 8.48541C88.6344 8.69874 88.5877 8.94541 88.5344 9.22541C88.4811 9.50541 88.4344 9.78541 88.3944 10.0654C88.3544 10.3454 88.3344 10.5987 88.3344 10.8254C88.3344 11.1187 88.4011 11.3787 88.5344 11.6054C88.6677 11.8187 88.9211 11.9854 89.2944 12.1054C89.6811 12.2254 90.2477 12.2854 90.9944 12.2854C91.4077 12.2854 91.7011 12.3987 91.8744 12.6254C92.0611 12.8387 92.1544 13.1054 92.1544 13.4254C92.1544 13.7587 92.0344 14.0454 91.7944 14.2854C91.5544 14.5254 91.2211 14.6454 90.7944 14.6454C89.8877 14.6454 89.1611 14.5654 88.6144 14.4054C88.0811 14.2321 87.6811 13.9587 87.4144 13.5854C87.1611 13.2121 86.9944 12.7121 86.9144 12.0854L87.7344 12.1054C87.5077 12.6654 87.2477 13.1187 86.9544 13.4654C86.6611 13.7987 86.3344 14.0521 85.9744 14.2254C85.6144 14.3854 85.2211 14.4921 84.7944 14.5454C84.3677 14.6121 83.9077 14.6454 83.4144 14.6454ZM86.9144 18.9054C86.5677 18.9054 86.2744 18.7854 86.0344 18.5454C85.7944 18.3054 85.6744 18.0187 85.6744 17.6854C85.6744 17.3387 85.7944 17.0387 86.0344 16.7854C86.2744 16.5321 86.5677 16.4054 86.9144 16.4054C87.2611 16.4054 87.5544 16.5321 87.7944 16.7854C88.0477 17.0387 88.1744 17.3387 88.1744 17.6854C88.1744 18.0187 88.0477 18.3054 87.7944 18.5454C87.5544 18.7854 87.2611 18.9054 86.9144 18.9054ZM90.7972 14.6454L90.9972 12.2854C91.7039 12.2854 92.4039 12.2387 93.0972 12.1454C93.7906 12.0521 94.4639 11.9187 95.1172 11.7454C95.7706 11.5721 96.3972 11.3521 96.9972 11.0854C97.5972 10.8187 98.1639 10.5054 98.6972 10.1454C98.3239 9.87874 97.9039 9.65208 97.4372 9.46541C96.9839 9.26541 96.4906 9.11874 95.9572 9.02541C95.4239 8.91874 94.8572 8.86541 94.2572 8.86541C94.0439 8.86541 93.8306 8.87208 93.6172 8.88541C93.4039 8.89874 93.1839 8.92541 92.9572 8.96541C92.7439 8.99208 92.5172 9.03208 92.2772 9.08541L91.9172 6.80541C92.2906 6.69874 92.6772 6.61874 93.0772 6.56541C93.4906 6.51208 93.8639 6.48541 94.1972 6.48541C94.9039 6.48541 95.5506 6.56541 96.1372 6.72541C96.7239 6.88541 97.2639 7.08541 97.7572 7.32541C98.2506 7.56541 98.7106 7.80541 99.1372 8.04541C99.5772 8.28541 99.9972 8.49208 100.397 8.66541C100.797 8.82541 101.197 8.90541 101.597 8.90541H102.217L102.457 11.1054C101.884 11.1187 101.351 11.2187 100.857 11.4054C100.364 11.5787 99.8772 11.8054 99.3972 12.0854C98.9306 12.3521 98.4306 12.6321 97.8972 12.9254C97.3639 13.2187 96.7639 13.4987 96.0972 13.7654C95.4306 14.0187 94.6639 14.2321 93.7972 14.4054C92.9306 14.5654 91.9306 14.6454 90.7972 14.6454ZM102.502 19.1654L101.662 17.0454C102.462 16.7787 103.168 16.4654 103.782 16.1054C104.395 15.7587 104.908 15.3721 105.322 14.9454C105.748 14.5321 106.062 14.0921 106.262 13.6254C106.475 13.1587 106.582 12.6721 106.582 12.1654C106.582 11.5787 106.448 10.9521 106.182 10.2854C105.928 9.60541 105.622 8.93874 105.262 8.28541L107.442 7.22541C107.682 7.65208 107.895 8.09874 108.082 8.56541C108.268 9.03208 108.428 9.45874 108.562 9.84541C108.695 10.2187 108.795 10.5121 108.862 10.7254C109.048 11.3387 109.295 11.7521 109.602 11.9654C109.922 12.1787 110.408 12.2854 111.062 12.2854C111.488 12.2854 111.788 12.3987 111.962 12.6254C112.148 12.8387 112.242 13.1054 112.242 13.4254C112.242 13.7587 112.122 14.0454 111.882 14.2854C111.642 14.5254 111.302 14.6454 110.862 14.6454C110.302 14.6454 109.822 14.5587 109.422 14.3854C109.035 14.1987 108.728 13.9454 108.502 13.6254C108.275 13.3054 108.128 12.9521 108.062 12.5654L108.762 12.9454C108.708 13.7187 108.488 14.4387 108.102 15.1054C107.728 15.7854 107.235 16.3921 106.622 16.9254C106.022 17.4587 105.362 17.9121 104.642 18.2854C103.922 18.6721 103.208 18.9654 102.502 19.1654ZM110.875 14.6454L111.075 12.2854C111.409 12.2854 111.689 12.2054 111.915 12.0454C112.155 11.8854 112.395 11.6254 112.635 11.2654C112.875 10.8921 113.149 10.3921 113.455 9.76541C113.842 8.95208 114.242 8.31874 114.655 7.86541C115.069 7.41208 115.489 7.09874 115.915 6.92541C116.355 6.73874 116.789 6.64541 117.215 6.64541C117.749 6.64541 118.249 6.77208 118.715 7.02541C119.182 7.26541 119.582 7.59208 119.915 8.00541C120.262 8.41874 120.529 8.88541 120.715 9.40541C120.915 9.92541 121.015 10.4521 121.015 10.9854C121.015 11.7321 120.869 12.3721 120.575 12.9054C120.282 13.4387 119.889 13.8454 119.395 14.1254C118.902 14.4054 118.355 14.5454 117.755 14.5454C117.249 14.5454 116.635 14.4521 115.915 14.2654C115.195 14.0787 114.389 13.6654 113.495 13.0254L114.415 11.0454C115.042 11.4587 115.615 11.7521 116.135 11.9254C116.669 12.0987 117.109 12.1854 117.455 12.1854C117.762 12.1854 118.009 12.1454 118.195 12.0654C118.395 11.9854 118.542 11.8721 118.635 11.7254C118.729 11.5654 118.775 11.3721 118.775 11.1454C118.775 10.8254 118.695 10.5054 118.535 10.1854C118.389 9.85208 118.189 9.57208 117.935 9.34541C117.695 9.11874 117.422 9.00541 117.115 9.00541C116.849 9.00541 116.615 9.09874 116.415 9.28541C116.215 9.45874 116.009 9.73208 115.795 10.1054C115.595 10.4787 115.362 10.9521 115.095 11.5254C114.775 12.1787 114.469 12.7121 114.175 13.1254C113.895 13.5387 113.595 13.8587 113.275 14.0854C112.969 14.2987 112.615 14.4454 112.215 14.5254C111.829 14.6054 111.382 14.6454 110.875 14.6454Z" fill="#1F2A37"/>
</svg>
