<svg width="20" height="20" viewBox="0 0 20 20" fill="none" xmlns="http://www.w3.org/2000/svg">
<g clip-path="url(#clip0_25_244)">
<path d="M16.6482 8.3241C16.6482 12.4803 12.0375 16.8089 10.4892 18.1457C10.3449 18.2542 10.1694 18.3129 9.9889 18.3129C9.80843 18.3129 9.63285 18.2542 9.48862 18.1457C7.94033 16.8089 3.32959 12.4803 3.32959 8.3241C3.32959 6.55794 4.03119 4.86412 5.28006 3.61526C6.52892 2.3664 8.22274 1.66479 9.9889 1.66479C11.7551 1.66479 13.4489 2.3664 14.6977 3.61526C15.9466 4.86412 16.6482 6.55794 16.6482 8.3241Z" stroke="#234F68" stroke-width="1.66483" stroke-linecap="round" stroke-linejoin="round"/>
<path d="M9.98894 10.8214C11.3681 10.8214 12.4862 9.70333 12.4862 8.32414C12.4862 6.94496 11.3681 5.8269 9.98894 5.8269C8.60975 5.8269 7.4917 6.94496 7.4917 8.32414C7.4917 9.70333 8.60975 10.8214 9.98894 10.8214Z" stroke="#234F68" stroke-width="1.66483" stroke-linecap="round" stroke-linejoin="round"/>
</g>
<defs>
<clipPath id="clip0_25_244">
<rect width="19.9779" height="19.9779" fill="white"/>
</clipPath>
</defs>
</svg>
