<svg width="18" height="18" viewBox="0 0 18 18" fill="none" xmlns="http://www.w3.org/2000/svg">
<path fill-rule="evenodd" clip-rule="evenodd" d="M12.3853 16.1247H6.12442C3.82465 16.1247 2.06035 15.2941 2.56149 11.9508L3.14502 7.41992C3.45394 5.75173 4.51801 5.11328 5.45165 5.11328H13.0855C14.0329 5.11328 15.0352 5.79978 15.3922 7.41992L15.9757 11.9508C16.4013 14.9165 14.6851 16.1247 12.3853 16.1247Z" stroke="#234F68" stroke-width="1.5" stroke-linecap="round" stroke-linejoin="round"/>
<path d="M12.4883 4.9488C12.4883 3.15925 11.0375 1.70853 9.24799 1.70853V1.70853C8.38624 1.70487 7.55853 2.04465 6.94789 2.65271C6.33725 3.26078 5.99398 4.08704 5.99399 4.9488H5.99399" stroke="#234F68" stroke-width="1.5" stroke-linecap="round" stroke-linejoin="round"/>
<path d="M11.4723 8.32616H11.4379" stroke="#234F68" stroke-width="1.5" stroke-linecap="round" stroke-linejoin="round"/>
<path d="M7.09926 8.32616H7.06493" stroke="#234F68" stroke-width="1.5" stroke-linecap="round" stroke-linejoin="round"/>
</svg>
