<svg width="16" height="16" viewBox="0 0 16 16" fill="none" xmlns="http://www.w3.org/2000/svg">
<path d="M14 6.66667H4.66666V4.66667C4.66666 3.93133 5.26466 3.33333 5.99999 3.33333C6.73533 3.33333 7.33333 3.93133 7.33333 4.66667H8.66666C8.66666 3.196 7.47066 2 5.99999 2C4.52933 2 3.33333 3.196 3.33333 4.66667V6.66667H1.99999C1.82318 6.66667 1.65361 6.7369 1.52859 6.86193C1.40357 6.98695 1.33333 7.15652 1.33333 7.33333V8.66667C1.33333 10.404 2.44933 11.882 3.99999 12.4333V14.6667H5.33333V12.6667H10.6667V14.6667H12V12.4333C13.5507 11.882 14.6667 10.404 14.6667 8.66667V7.33333C14.6667 7.15652 14.5964 6.98695 14.4714 6.86193C14.3464 6.7369 14.1768 6.66667 14 6.66667ZM13.3333 8.66667C13.3333 10.1373 12.1373 11.3333 10.6667 11.3333H5.33333C3.86266 11.3333 2.66666 10.1373 2.66666 8.66667V8H13.3333V8.66667Z" fill="#234F68"/>
</svg>
