<svg width="16" height="16" viewBox="0 0 16 16" fill="none" xmlns="http://www.w3.org/2000/svg">
<path d="M14 7.18683V5.3335C14 4.2335 13.1 3.3335 12 3.3335H9.33334C8.82001 3.3335 8.35334 3.5335 8.00001 3.8535C7.64668 3.5335 7.18001 3.3335 6.66668 3.3335H4.00001C2.90001 3.3335 2.00001 4.2335 2.00001 5.3335V7.18683C1.59334 7.5535 1.33334 8.08016 1.33334 8.66683V12.6668H2.66668V11.3335H13.3333V12.6668H14.6667V8.66683C14.6667 8.08016 14.4067 7.5535 14 7.18683ZM9.33334 4.66683H12C12.3667 4.66683 12.6667 4.96683 12.6667 5.3335V6.66683H8.66668V5.3335C8.66668 4.96683 8.96668 4.66683 9.33334 4.66683ZM3.33334 5.3335C3.33334 4.96683 3.63334 4.66683 4.00001 4.66683H6.66668C7.03334 4.66683 7.33334 4.96683 7.33334 5.3335V6.66683H3.33334V5.3335ZM2.66668 10.0002V8.66683C2.66668 8.30016 2.96668 8.00016 3.33334 8.00016H12.6667C13.0333 8.00016 13.3333 8.30016 13.3333 8.66683V10.0002H2.66668Z" fill="#1F2A37"/>
</svg>
