<svg width="20" height="20" viewBox="0 0 20 20" fill="none" xmlns="http://www.w3.org/2000/svg">
<path d="M12.5 3.33317V1.6665V3.33317ZM12.5 3.33317V4.99984V3.33317ZM12.5 3.33317H8.75H12.5ZM2.5 8.33317V15.8332C2.5 16.2752 2.67559 16.6991 2.98816 17.0117C3.30072 17.3242 3.72464 17.4998 4.16667 17.4998H15.8333C16.2754 17.4998 16.6993 17.3242 17.0118 17.0117C17.3244 16.6991 17.5 16.2752 17.5 15.8332V8.33317H2.5Z" stroke="#252B5C" stroke-width="1.6" stroke-linecap="round" stroke-linejoin="round"/>
<path d="M2.5 8.33301V4.99967C2.5 4.55765 2.67559 4.13372 2.98816 3.82116C3.30072 3.5086 3.72464 3.33301 4.16667 3.33301H5.83333" stroke="#252B5C" stroke-width="1.6" stroke-linecap="round" stroke-linejoin="round"/>
<path d="M5.83331 1.6665V4.99984" stroke="#252B5C" stroke-width="1.6" stroke-linecap="round" stroke-linejoin="round"/>
<path d="M17.5 8.33301V4.99967C17.5 4.55765 17.3244 4.13372 17.0119 3.82116C16.6993 3.5086 16.2754 3.33301 15.8334 3.33301H15.4167" stroke="#252B5C" stroke-width="1.6" stroke-linecap="round" stroke-linejoin="round"/>
</svg>
