<svg width="274" height="254" viewBox="0 0 274 254" fill="none" xmlns="http://www.w3.org/2000/svg">
<path d="M265.818 253.715C270.227 253.715 273.824 250.192 273.894 245.796C274.23 223.886 276 191.559 234.613 182.621C201.117 175.385 220.98 116.038 130.771 119.871C66.0195 122.622 83.2176 177.043 32.8731 181.571C-0.628625 184.588 -0.92044 226.833 0.367355 246.188C0.646483 250.419 4.17365 253.708 8.43035 253.708H265.818V253.715Z" fill="#DDDDEC"/>
<path opacity="0.55" d="M234.613 182.615C201.117 175.379 220.98 116.031 130.771 119.864C115.368 120.522 104.609 124.102 96.4697 129.232C99.2103 128.871 102.122 128.618 105.224 128.492C195.427 124.659 175.571 184.006 209.066 191.242C250.016 200.085 248.721 231.817 248.36 253.708H265.818C270.227 253.708 273.824 250.185 273.894 245.789C274.23 223.879 276 191.558 234.613 182.615Z" fill="#EAEBF2"/>
<path d="M42.8268 239.123C42.8268 239.123 41.3931 237.782 42.3573 232.71C43.3216 227.637 45.7703 222.76 44.565 217.258C43.366 211.748 33.9518 197.871 33.9264 196.948C33.8947 196.024 31.0209 213.096 35.8866 219.826C40.7523 226.549 41.336 228.883 41.1203 232.419C40.9046 235.954 41.171 238.807 41.7039 239.629L42.8268 239.123Z" fill="#D6BBFB"/>
<path d="M41.9322 228.922C41.3676 231.186 41.025 236.859 41.9258 238.219C42.0083 238.346 42.1288 238.276 42.2811 238.042C42.0083 237.106 41.8243 235.462 42.3445 232.717C43.3088 227.644 45.7575 222.767 44.5522 217.264C43.3532 211.755 33.9389 197.878 33.9136 196.955C33.9136 196.955 35.3346 208.523 40.1051 216.48C43.5308 222.173 42.4968 226.657 41.9322 228.922Z" fill="#9E77ED"/>
<path d="M44.5399 238.776C44.5399 238.776 41.7739 231.894 46.462 225.936C51.1501 219.978 58.6422 212.324 58.7881 209.295C58.7881 209.295 60.7166 223.684 54.6138 227.757C48.5174 231.831 44.2417 232.482 45.2948 238.75L44.5399 238.776Z" fill="#D6BBFB"/>
<path d="M51.1244 224.867C44.3239 229.8 43.7656 235.486 44.825 238.124C44.9075 238.326 45.0598 238.453 45.2691 238.522C44.3556 232.476 48.5996 231.786 54.6199 227.764C60.7163 223.69 58.7941 209.301 58.7941 209.301C58.7941 209.301 57.9187 219.927 51.1244 224.867Z" fill="#9E77ED"/>
<path d="M39.9908 238.927C39.9908 238.927 40.8789 235.284 40.4032 231.35C39.9337 227.416 35.8102 225.202 31.9595 221.047C29.9803 218.909 29.3903 207.606 30.621 206.556C30.621 206.556 23.8204 214.772 24.8735 220.787C25.9202 226.802 37.0156 230.711 38.0433 233.621C39.071 236.53 38.9821 238.965 38.9821 238.965L39.9908 238.927Z" fill="#D6BBFB"/>
<path d="M28.3246 209.787C26.0789 215.853 28.3817 223.202 35.8484 227.769C41.3421 231.127 39.5912 238.117 39.5912 238.117L40.4921 235.359C40.5745 234.17 40.5809 232.778 40.4096 231.349C39.9401 227.415 35.8167 225.201 31.966 221.045C30.0565 218.983 29.4411 208.395 30.5005 206.707C30.1897 207.099 29.3079 208.237 28.3246 209.787Z" fill="#9E77ED"/>
<path d="M30.5001 206.708C30.5764 206.613 30.6208 206.556 30.6208 206.556C30.5827 206.594 30.5382 206.645 30.5001 206.708Z" fill="#9E77ED"/>
<path d="M45.9604 238.472C45.9604 238.472 47.5527 232.577 51.4986 231.78C55.4381 230.989 59.9676 225.176 60.2087 224.038C60.2087 224.044 59.5426 234.993 45.9604 238.472Z" fill="#D6BBFB"/>
<path d="M51.2697 233.734C48.8527 234.936 47.8504 236.555 47.4951 238.029C59.5864 234.152 60.2081 224.044 60.2081 224.044C60.1574 224.272 59.9417 224.683 59.5928 225.196C58.4065 227.27 55.5391 231.609 51.2697 233.734Z" fill="#9E77ED"/>
<path d="M54.4929 236.302H33.8755L36.3242 251.653C36.5082 252.817 37.5168 253.677 38.6968 253.677H49.6653C50.8452 253.677 51.8539 252.823 52.0378 251.653L54.4929 236.302Z" fill="#FEC84B"/>
<path d="M54.0869 238.845L54.4929 236.302H33.8755L34.2815 238.845H54.0869Z" fill="#FDB022"/>
<path d="M49.4932 236.302L47.0445 251.653C46.8605 252.817 45.8518 253.677 44.6719 253.677H49.6645C50.8444 253.677 51.8531 252.823 52.037 251.653L54.4858 236.302H49.4932Z" fill="#FDB022"/>
<path d="M231.974 251.634H202.304L206.84 240.666V240.66L208.667 236.232L209.168 235.018L209.986 233.045L210.151 232.64L211.978 228.212L212.314 227.409L215.55 219.579C216.133 218.168 218.138 218.168 218.722 219.579L221.957 227.409L222.293 228.212L224.12 232.64L224.285 233.045L225.103 235.018L225.605 236.232L227.432 240.66V240.666L231.974 251.634Z" fill="#FEC84B"/>
<path opacity="0.29" d="M204.244 246.934L202.297 251.633H231.973L230.032 246.934H204.244Z" fill="#FDB022"/>
<path d="M233.909 248.825H199.925V253.613H233.909V248.825Z" fill="#B692F6"/>
<path d="M233.909 248.825H226.569V253.613H233.909V248.825Z" fill="#9E77ED"/>
<path opacity="0.29" d="M230.806 248.825H226.607L223.238 240.672V240.666L221.411 236.239L220.91 235.024L220.092 233.051L219.927 232.646L218.1 228.218L217.763 227.415L215.042 220.824L215.55 219.585C216.133 218.174 218.138 218.174 218.721 219.585L221.957 227.415L222.293 228.218L224.12 232.646L224.285 233.051L225.103 235.024L225.604 236.239L227.431 240.666V240.672L230.806 248.825Z" fill="#FDB022"/>
<path d="M224.114 232.646H210.151L211.978 228.218H222.293L224.114 232.646Z" fill="#9E77ED"/>
<path d="M227.432 240.66V240.666H206.84V240.66L208.66 236.232H225.605L227.432 240.66Z" fill="#9E77ED"/>
<path d="M224.114 232.646H219.921L218.094 228.218H222.293L224.114 232.646Z" fill="#7F56D9"/>
<path d="M227.432 240.66V240.666H223.232V240.66L221.411 236.232H225.605L227.432 240.66Z" fill="#7F56D9"/>
<path d="M42.8328 144.071C45.0468 144.071 46.9753 142.464 47.2798 140.276C47.3305 139.883 47.3623 139.479 47.3623 139.074C47.3623 134.197 43.3974 130.244 38.5063 130.244C38.3033 130.244 38.1066 130.25 37.91 130.269C37.504 125.462 33.4629 121.686 28.5401 121.686C23.3446 121.686 19.1323 125.886 19.1323 131.066C19.1323 131.294 19.1449 131.522 19.1576 131.749C17.6859 130.927 15.9667 130.491 14.1397 130.573C9.41353 130.788 5.53111 134.558 5.19489 139.264C5.19489 139.301 5.18854 139.339 5.18854 139.377C5.03629 141.933 7.11072 144.083 9.67997 144.083H42.8328V144.071Z" fill="#E9D7FE"/>
<path d="M254.164 151.002C261.168 151.002 261.555 140.496 254.558 140.155C254.367 140.148 254.177 140.142 253.98 140.142C252.731 140.142 251.532 140.338 250.402 140.699C249.464 135.013 244.515 130.674 238.546 130.674C232.443 130.674 227.412 135.209 226.639 141.078C225.192 140.389 223.568 139.997 221.855 139.997C220.897 139.997 219.971 140.117 219.083 140.345C212.961 141.919 214.243 151.002 220.568 151.002H254.164Z" fill="#E9D7FE"/>
<path d="M166.56 72.0347C173.557 72.0347 173.951 61.5288 166.953 61.1936C166.763 61.1873 166.573 61.181 166.376 61.181C165.126 61.181 163.927 61.377 162.798 61.7376C161.859 56.0514 156.911 51.7124 150.948 51.7124C144.852 51.7124 139.815 56.2474 139.041 62.1171C137.594 61.4276 135.97 61.0355 134.264 61.0355C133.306 61.0355 132.38 61.1557 131.491 61.3834C125.37 62.952 126.657 72.0347 132.976 72.0347H166.56Z" fill="#E9D7FE"/>
<path d="M56.0846 111.054C65.3516 111.054 72.864 103.564 72.864 94.3244C72.864 85.0849 65.3516 77.5947 56.0846 77.5947C46.8176 77.5947 39.3052 85.0849 39.3052 94.3244C39.3052 103.564 46.8176 111.054 56.0846 111.054Z" fill="#FEC84B"/>
<path d="M56.2185 77.5947C60.7797 80.5865 63.7993 85.735 63.7993 91.5857C63.7993 100.827 56.2883 108.315 47.0199 108.315C46.9755 108.315 46.9311 108.315 46.8804 108.309C49.5257 110.042 52.685 111.054 56.0852 111.054C65.3536 111.054 72.8646 103.565 72.8646 94.3244C72.8646 85.1342 65.4234 77.6706 56.2185 77.5947Z" fill="#FDB022"/>
<path d="M146.667 253.33H132.085C130.156 253.33 128.597 251.771 128.597 249.853V171.917H151.323V248.688C151.323 251.254 149.241 253.33 146.667 253.33Z" fill="#7F56D9"/>
<path d="M147.972 253.33H138.639V171.917H151.323V249.989C151.323 251.834 149.822 253.33 147.972 253.33Z" fill="#9E77ED"/>
<path d="M99.6979 97.0889H172.385C188.626 97.0889 201.796 110.215 201.796 126.414V177.939C201.796 179.124 200.835 180.083 199.645 180.083H72.0249C71.8927 180.083 71.7817 179.978 71.7817 179.841V124.922C71.7817 109.551 84.2811 97.0889 99.6979 97.0889Z" fill="#B692F6"/>
<g opacity="0.07">
<path d="M108.683 108.419H163.622C179.864 108.419 193.034 121.545 193.034 137.744V177.939C193.034 179.125 192.072 180.084 190.883 180.084H81.0102C80.8781 180.084 80.7671 179.979 80.7671 179.842V136.252C80.7671 120.881 93.2665 108.419 108.683 108.419Z" fill="#ECF1F7"/>
</g>
<g opacity="0.65">
<path d="M199.371 180.347H119.084V173.497H201.797V177.929C201.797 179.267 200.713 180.347 199.371 180.347Z" fill="#9E77ED"/>
</g>
<g opacity="0.65">
<path d="M199.371 180.347H119.084V173.497H201.797V177.929C201.797 179.267 200.713 180.347 199.371 180.347Z" fill="#9E77ED"/>
</g>
<path d="M199.963 180.084H163.416V173.698H201.797V178.256C201.797 179.267 200.978 180.084 199.963 180.084Z" fill="#7F56D9"/>
<path opacity="0.15" d="M201.797 126.599H123.048V173.497H201.797V126.599Z" fill="#7F56D9"/>
<path d="M119.877 178.24H74.9528C73.2034 178.24 71.7817 176.823 71.7817 175.078V124.228C71.7817 110.111 83.2558 98.6707 97.4147 98.6707C111.574 98.6707 123.048 110.111 123.048 124.228V175.078C123.048 176.823 121.626 178.24 119.877 178.24Z" fill="#9E77ED"/>
<path d="M119.349 178.239H74.4248V124.754C74.4248 112.386 84.4824 102.359 96.8867 102.359C109.291 102.359 119.349 112.386 119.349 124.754V178.239Z" fill="#1F2A37"/>
<path d="M121.15 171.389H83.9377C82.5952 171.389 81.5012 170.304 81.5012 168.96V146.639C81.5012 144.963 82.8648 143.609 84.5402 143.609H119.898C121.933 143.609 123.582 145.253 123.582 147.281V168.96C123.587 170.304 122.498 171.389 121.15 171.389Z" fill="#B692F6"/>
<path opacity="0.56" d="M121.673 171.39H102.541H83.4087C82.3517 171.39 81.4955 170.536 81.4955 169.482V146.275C81.4955 145.991 81.6012 145.711 81.7915 145.495C82.0134 145.242 82.394 145.211 82.6529 145.427L97.2822 157.494L100.305 159.992C101.6 161.056 103.471 161.046 104.755 159.965L122.714 144.763C123.84 145.827 123.586 146.897 123.586 146.897V169.477C123.586 170.536 122.73 171.39 121.673 171.39Z" fill="#7F56D9"/>
<path d="M82.3729 171.626C82.2249 171.626 82.0822 171.569 81.9765 171.453C81.781 171.237 81.8021 170.905 82.0188 170.71L97.795 156.714C98.0117 156.519 98.3446 156.54 98.5402 156.756C98.7357 156.972 98.7146 157.304 98.4979 157.499L82.7217 171.495C82.6213 171.584 82.4945 171.626 82.3729 171.626Z" fill="#B692F6"/>
<path d="M122.133 171.627C122.006 171.627 121.884 171.585 121.784 171.495L106.452 157.947C106.235 157.752 106.214 157.42 106.404 157.204C106.6 156.988 106.933 156.967 107.149 157.157L122.482 170.71C122.698 170.905 122.719 171.237 122.524 171.453C122.423 171.569 122.281 171.627 122.133 171.627Z" fill="#B692F6"/>
<path d="M119.612 178.24H77.8594V175.668C77.8594 173.307 79.7779 171.389 82.1509 171.389H119.612V178.24Z" fill="#FDA29B"/>
<path d="M118.074 187.725H42.576C39.7325 187.725 37.4282 185.427 37.4282 182.592V178.24H124.105V181.712C124.105 185.032 121.404 187.725 118.074 187.725Z" fill="#B692F6"/>
<path d="M118.074 187.725H94.3704C91.527 187.725 89.2227 185.427 89.2227 182.592V178.24H124.105V181.712C124.105 185.032 121.404 187.725 118.074 187.725Z" fill="#9E77ED"/>
<path d="M143.659 135.557C147.746 135.557 151.059 132.254 151.059 128.179C151.059 124.105 147.746 120.802 143.659 120.802C139.573 120.802 136.26 124.105 136.26 128.179C136.26 132.254 139.573 135.557 143.659 135.557Z" fill="#7F56D9"/>
<path d="M143.66 130.551C142.344 130.551 141.282 129.492 141.282 128.179V81.2809C141.282 79.9688 142.344 78.9097 143.66 78.9097C144.976 78.9097 146.038 79.9688 146.038 81.2809V128.179C146.038 129.492 144.976 130.551 143.66 130.551Z" fill="#7F56D9"/>
<path d="M144.717 134.503C148.22 134.503 151.059 131.672 151.059 128.179C151.059 124.687 148.22 121.856 144.717 121.856C141.214 121.856 138.375 124.687 138.375 128.179C138.375 131.672 141.214 134.503 144.717 134.503Z" fill="#9E77ED"/>
<path d="M146.831 92.6895V81.281H168.516L146.831 92.6895Z" fill="#B692F6"/>
<path d="M146.831 92.6895V81.281H168.516L146.831 92.6895Z" fill="#B692F6"/>
<path d="M144.717 130.551C143.401 130.551 142.339 129.492 142.339 128.179V81.2809C142.339 79.9688 143.401 78.9097 144.717 78.9097C146.033 78.9097 147.095 79.9688 147.095 81.2809V128.179C147.095 129.492 146.033 130.551 144.717 130.551Z" fill="#9E77ED"/>
<path d="M144.716 131.868C142.602 131.868 140.885 130.155 140.885 128.048C140.885 125.94 142.602 124.227 144.716 124.227C146.831 124.227 148.548 125.94 148.548 128.048C148.548 130.155 146.831 131.868 144.716 131.868ZM144.716 124.754C142.893 124.754 141.413 126.23 141.413 128.048C141.413 129.866 142.893 131.341 144.716 131.341C146.54 131.341 148.02 129.866 148.02 128.048C148.02 126.23 146.54 124.754 144.716 124.754Z" fill="#7F56D9"/>
<path d="M229.096 204.073H176.551C175.897 204.073 175.367 203.543 175.367 202.888V187.62C175.367 186.965 175.897 186.435 176.551 186.435H229.096C229.751 186.435 230.281 186.965 230.281 187.62V202.888C230.288 203.543 229.751 204.073 229.096 204.073Z" fill="#7F56D9"/>
<path d="M187.421 197.738C188.981 196.178 188.981 193.648 187.421 192.088C185.861 190.527 183.332 190.527 181.772 192.088C180.212 193.648 180.212 196.178 181.772 197.738C183.332 199.298 185.861 199.298 187.421 197.738Z" fill="white"/>
<path d="M184.26 196.891C184.253 196.891 184.253 196.891 184.246 196.891C184.121 196.891 183.995 196.832 183.915 196.737L182.149 194.743C181.98 194.551 181.995 194.257 182.186 194.088C182.377 193.919 182.671 193.933 182.841 194.125L184.275 195.751L187.828 192.182C188.012 191.998 188.306 191.998 188.483 192.182C188.667 192.366 188.667 192.66 188.483 192.837L184.584 196.759C184.496 196.84 184.378 196.891 184.26 196.891Z" fill="#FDB022"/>
<path d="M222.667 192.567H194.567C194.442 192.567 194.331 192.464 194.331 192.33C194.331 192.205 194.434 192.094 194.567 192.094H222.667C222.792 192.094 222.903 192.197 222.903 192.33C222.895 192.464 222.792 192.567 222.667 192.567Z" fill="white"/>
<path d="M207.124 195.908H194.567C194.442 195.908 194.331 195.804 194.331 195.671C194.331 195.538 194.434 195.435 194.567 195.435H207.124C207.249 195.435 207.359 195.538 207.359 195.671C207.359 195.804 207.249 195.908 207.124 195.908Z" fill="white"/>
<path d="M207.124 199.696H194.567C194.442 199.696 194.331 199.593 194.331 199.46C194.331 199.334 194.434 199.223 194.567 199.223H207.124C207.249 199.223 207.359 199.327 207.359 199.46C207.352 199.593 207.249 199.696 207.124 199.696Z" fill="white"/>
<path d="M222.667 195.908H210.11C209.985 195.908 209.874 195.804 209.874 195.671C209.874 195.538 209.977 195.435 210.11 195.435H222.667C222.792 195.435 222.902 195.538 222.902 195.671C222.902 195.804 222.792 195.908 222.667 195.908Z" fill="white"/>
<path d="M214.869 219.591H162.317C161.662 219.591 161.133 219.061 161.133 218.406V203.138C161.133 202.483 161.662 201.953 162.317 201.953H214.862C215.517 201.953 216.046 202.483 216.046 203.138V218.406C216.054 219.054 215.524 219.591 214.869 219.591Z" fill="white"/>
<path d="M170.365 214.425C172.571 214.425 174.359 212.636 174.359 210.43C174.359 208.223 172.571 206.434 170.365 206.434C168.159 206.434 166.371 208.223 166.371 210.43C166.371 212.636 168.159 214.425 170.365 214.425Z" fill="#FDB022"/>
<path opacity="0.69" d="M208.433 208.085H180.333C180.208 208.085 180.097 207.982 180.097 207.849C180.097 207.723 180.2 207.612 180.333 207.612H208.433C208.558 207.612 208.668 207.716 208.668 207.849C208.668 207.982 208.565 208.085 208.433 208.085Z" fill="#FDB022"/>
<path opacity="0.69" d="M192.889 211.417H180.333C180.208 211.417 180.097 211.314 180.097 211.181C180.097 211.055 180.2 210.944 180.333 210.944H192.889C193.015 210.944 193.125 211.048 193.125 211.181C193.125 211.314 193.015 211.417 192.889 211.417Z" fill="#FDB022"/>
<path opacity="0.69" d="M192.889 215.214H180.333C180.208 215.214 180.097 215.111 180.097 214.978C180.097 214.852 180.2 214.741 180.333 214.741H192.889C193.015 214.741 193.125 214.845 193.125 214.978C193.125 215.111 193.015 215.214 192.889 215.214Z" fill="#FDB022"/>
<path opacity="0.69" d="M208.432 211.417H195.876C195.75 211.417 195.64 211.314 195.64 211.181C195.64 211.055 195.743 210.944 195.876 210.944H208.432C208.557 210.944 208.668 211.048 208.668 211.181C208.668 211.314 208.565 211.417 208.432 211.417Z" fill="#FDB022"/>
<path d="M210.39 134.327C218.094 134.327 224.34 128.1 224.34 120.418C224.34 112.736 218.094 106.509 210.39 106.509C202.685 106.509 196.439 112.736 196.439 120.418C196.439 128.1 202.685 134.327 210.39 134.327Z" fill="#53389E"/>
<path d="M213.593 105.601C216.244 93.3527 208.435 81.2803 196.151 78.6364C183.866 75.9926 171.758 83.7785 169.106 96.0267C166.454 108.275 174.263 120.347 186.548 122.991C198.833 125.635 210.941 117.849 213.593 105.601Z" fill="#FDA29B"/>
<path d="M191.339 115.877C188.776 115.877 186.619 113.966 186.328 111.43L186.29 111.076H196.395L196.357 111.43C196.053 113.966 193.902 115.877 191.339 115.877ZM187.013 111.708C187.419 113.745 189.22 115.244 191.339 115.244C193.458 115.244 195.26 113.745 195.666 111.708H187.013Z" fill="white"/>
<path d="M200.678 106.445H181.995V97.9319C181.995 93.0111 186.011 89.0073 190.946 89.0073H191.727C196.662 89.0073 200.678 93.0111 200.678 97.9319V106.445ZM182.63 105.813H200.043V97.9319C200.043 93.3589 196.313 89.6398 191.727 89.6398H190.946C186.36 89.6398 182.63 93.3589 182.63 97.9319V105.813Z" fill="white"/>
<path d="M200.367 111.709H182.312C180.745 111.709 179.47 110.437 179.47 108.875V108.647C179.47 107.085 180.745 105.814 182.312 105.814H200.367C201.934 105.814 203.209 107.085 203.209 108.647V108.875C203.209 110.437 201.934 111.709 200.367 111.709ZM182.312 106.446C181.088 106.446 180.098 107.433 180.098 108.647V108.875C180.098 110.089 181.088 111.076 182.306 111.076H200.36C201.578 111.076 202.568 110.089 202.568 108.875V108.647C202.568 107.433 201.578 106.446 200.36 106.446H182.312Z" fill="white"/>
<path d="M189.424 103.747H182.312C182.135 103.747 181.995 103.607 181.995 103.429C181.995 103.252 182.135 103.112 182.312 103.112H189.424C189.601 103.112 189.741 103.252 189.741 103.429C189.741 103.607 189.601 103.747 189.424 103.747Z" fill="white"/>
<path d="M190.49 103.747C190.407 103.747 190.325 103.715 190.261 103.658C190.236 103.626 190.21 103.594 190.198 103.556C190.179 103.512 190.172 103.474 190.172 103.436C190.172 103.392 190.179 103.347 190.198 103.309C190.21 103.271 190.236 103.239 190.261 103.208C190.293 103.182 190.331 103.157 190.369 103.138C190.484 103.093 190.623 103.119 190.712 103.208C190.744 103.239 190.77 103.271 190.782 103.309C190.801 103.347 190.808 103.392 190.808 103.436C190.808 103.474 190.801 103.512 190.782 103.556C190.77 103.594 190.744 103.626 190.712 103.658C190.687 103.683 190.649 103.709 190.611 103.728C190.573 103.74 190.528 103.747 190.49 103.747Z" fill="white"/>
<path d="M191.442 87.287C191.264 87.287 191.124 87.1479 191.124 86.9708V82.3282C191.124 82.1511 191.264 82.012 191.442 82.012C191.619 82.012 191.759 82.1511 191.759 82.3282V86.9708C191.759 87.1479 191.613 87.287 191.442 87.287Z" fill="white"/>
<path d="M197.638 88.6285C197.575 88.6285 197.518 88.6095 197.461 88.5715C197.315 88.4767 197.277 88.2742 197.378 88.1351L198.685 86.2123C198.787 86.0668 198.977 86.0289 199.129 86.1301C199.275 86.2249 199.313 86.4273 199.212 86.5665L197.905 88.4893C197.835 88.5842 197.734 88.6285 197.638 88.6285Z" fill="white"/>
<path d="M185.04 88.6285C184.938 88.6285 184.837 88.5779 184.779 88.4893L183.473 86.5665C183.378 86.421 183.409 86.2249 183.555 86.1301C183.701 86.0289 183.898 86.0668 183.999 86.2123L185.306 88.1351C185.401 88.2806 185.369 88.4767 185.224 88.5715C185.166 88.6095 185.103 88.6285 185.04 88.6285Z" fill="white"/>
<path d="M96.8574 20.8166C98.1227 19.6855 99.2245 18.2716 100.163 16.575C101.101 14.8566 101.57 13.2143 101.57 11.6482C101.57 10.082 101.373 8.87478 100.981 8.02646C100.588 7.17813 100.043 6.75397 99.3445 6.75397C98.6463 6.75397 97.73 7.38478 96.5956 8.64639C95.4829 9.88625 94.4685 11.5176 93.5522 13.5406C92.6577 15.5635 92.2105 17.4994 92.2105 19.3483C92.2105 20.2837 92.3414 21.045 92.6031 21.6323C92.8649 22.1978 93.1922 22.4806 93.5849 22.4806C94.5012 22.4806 95.592 21.9259 96.8574 20.8166ZM93.6176 26.4286C92.0032 26.4286 90.5633 25.6455 89.2979 24.0794C88.0326 22.4915 87.3999 20.9145 87.3999 19.3483C87.3999 17.3472 87.7817 15.3025 88.5453 13.2143C89.3089 11.1044 90.2579 9.28807 91.3923 7.76544C92.5486 6.22105 93.814 4.95944 95.1884 3.9806C96.5629 2.98001 97.8282 2.47972 98.9845 2.47972C101.101 2.47972 102.835 3.38242 104.188 5.18783C105.54 6.97149 106.217 8.98354 106.217 11.224C106.217 13.4644 105.649 15.7375 104.515 18.0432C103.381 20.3272 101.81 22.2957 99.8026 23.9489C97.8173 25.602 95.7556 26.4286 93.6176 26.4286Z" fill="#1F2A37"/>
<path d="M119.311 9.65786C120.118 9.65786 120.98 10.3757 121.896 11.8113C122.835 13.2469 123.304 14.6826 123.304 16.1182C123.304 16.9883 122.933 18.0215 122.191 19.2178C121.449 20.4142 120.511 21.5453 119.377 22.6111C118.264 23.6552 116.966 24.5471 115.482 25.2866C114.021 26.0262 112.624 26.396 111.294 26.396H110.901C109.526 32.095 108.556 34.9445 107.988 34.9445C107.53 34.9445 107.05 34.5638 106.549 33.8025C106.025 33.0412 105.763 32.4104 105.763 31.9101C105.763 31.4098 106.079 29.8763 106.712 27.3095C108.588 19.6964 109.526 13.9539 109.526 10.082C109.526 9.42946 109.843 9.10318 110.476 9.10318C110.999 9.10318 111.665 9.39683 112.472 9.98413C113.279 10.5714 113.781 11.3328 113.977 12.2681C115.831 10.5279 117.61 9.65786 119.311 9.65786ZM111.915 22.5132C113.617 22.187 115.221 21.2516 116.726 19.7072C118.253 18.1629 119.017 16.8251 119.017 15.694C119.017 14.5629 118.7 13.9974 118.068 13.9974C117.151 13.9974 116.181 14.5194 115.155 15.5635C114.741 15.9985 114.282 16.6402 113.781 17.4885C113.279 18.3369 112.843 19.3266 112.472 20.4577L111.915 22.5132Z" fill="#1F2A37"/>
<path d="M136.92 9.65786C137.727 9.65786 138.589 10.3757 139.505 11.8113C140.443 13.2469 140.912 14.6826 140.912 16.1182C140.912 16.9883 140.542 18.0215 139.8 19.2178C139.058 20.4142 138.12 21.5453 136.985 22.6111C135.873 23.6552 134.575 24.5471 133.091 25.2866C131.629 26.0262 130.233 26.396 128.902 26.396H128.51C127.135 32.095 126.164 34.9445 125.597 34.9445C125.139 34.9445 124.659 34.5638 124.157 33.8025C123.634 33.0412 123.372 32.4104 123.372 31.9101C123.372 31.4098 123.688 29.8763 124.321 27.3095C126.197 19.6964 127.135 13.9539 127.135 10.082C127.135 9.42946 127.452 9.10318 128.084 9.10318C128.608 9.10318 129.273 9.39683 130.08 9.98413C130.888 10.5714 131.389 11.3328 131.586 12.2681C133.44 10.5279 135.218 9.65786 136.92 9.65786ZM129.524 22.5132C131.226 22.187 132.829 21.2516 134.335 19.7072C135.862 18.1629 136.625 16.8251 136.625 15.694C136.625 14.5629 136.309 13.9974 135.676 13.9974C134.76 13.9974 133.789 14.5194 132.764 15.5635C132.349 15.9985 131.891 16.6402 131.389 17.4885C130.888 18.3369 130.451 19.3266 130.08 20.4577L129.524 22.5132Z" fill="#1F2A37"/>
<path d="M153.089 9.65786C153.918 9.65786 154.736 10.1473 155.543 11.1261C156.35 12.1049 156.754 12.9859 156.754 13.769C156.754 14.291 156.525 14.552 156.067 14.552C155.805 14.552 155.423 14.4542 154.921 14.2584C154.42 14.0409 153.907 13.9321 153.383 13.9321C152.882 13.9321 152.129 14.1061 151.125 14.4542C150.144 14.8022 149.653 15.259 149.653 15.8245C149.653 16.042 149.947 16.3574 150.536 16.7707C151.125 17.184 151.769 17.6082 152.467 18.0432C153.165 18.4783 153.809 19.0873 154.398 19.8704C154.987 20.6317 155.281 21.4692 155.281 22.3827C155.281 23.2746 154.616 24.1773 153.285 25.0908C151.976 26.0044 150.427 26.4612 148.638 26.4612C146.871 26.4612 145.355 26.0588 144.09 25.254C142.824 24.4492 142.191 23.6226 142.191 22.7743C142.191 21.9259 142.541 21.5018 143.239 21.5018C143.522 21.5018 143.86 21.6105 144.253 21.8281C145.344 22.4589 146.697 22.7743 148.311 22.7743C149.947 22.7743 150.765 22.5567 150.765 22.1217C150.765 21.6867 150.449 21.2081 149.816 20.6861C149.205 20.1423 148.529 19.642 147.787 19.1852C147.067 18.7284 146.391 18.1737 145.758 17.5212C145.148 16.8469 144.842 16.1943 144.842 15.5635C144.842 14.3889 145.911 13.1164 148.049 11.746C150.187 10.3539 151.867 9.65786 153.089 9.65786Z" fill="#1F2A37"/>
<path d="M160.576 23.5573C160.576 22.97 160.827 22.3936 161.329 21.8281C161.831 21.2408 162.332 20.9471 162.834 20.9471C163.336 20.9471 163.914 21.5344 164.569 22.709C165.245 23.8836 165.583 24.7646 165.583 25.3519C165.583 25.6346 165.398 25.95 165.027 26.2981C164.678 26.6461 164.329 26.8201 163.98 26.8201C163.325 26.8201 162.594 26.4177 161.787 25.6129C160.98 24.8081 160.576 24.1229 160.576 23.5573ZM163.947 0.946208C163.947 0.315403 164.285 0 164.961 0C165.638 0 166.532 0.478542 167.645 1.43563C168.779 2.39271 169.346 3.08877 169.346 3.52381C169.346 4.95944 168.834 7.92858 167.808 12.4312C166.805 16.9121 165.932 19.1526 165.19 19.1526C164.601 19.1526 164.023 18.848 163.456 18.239C162.889 17.6299 162.594 16.9991 162.572 16.3466C162.529 16.1073 162.616 15.4112 162.834 14.2584C163.052 13.0838 163.292 11.2892 163.554 8.87479C163.816 6.43857 163.947 3.79571 163.947 0.946208Z" fill="#1F2A37"/>
<path d="M176.204 23.5573C176.204 22.97 176.454 22.3936 176.956 21.8281C177.458 21.2408 177.96 20.9471 178.462 20.9471C178.963 20.9471 179.541 21.5344 180.196 22.709C180.872 23.8836 181.21 24.7646 181.21 25.3519C181.21 25.6346 181.025 25.95 180.654 26.2981C180.305 26.6461 179.956 26.8201 179.607 26.8201C178.952 26.8201 178.222 26.4177 177.414 25.6129C176.607 24.8081 176.204 24.1229 176.204 23.5573ZM179.574 0.946208C179.574 0.315403 179.912 0 180.589 0C181.265 0 182.159 0.478542 183.272 1.43563C184.407 2.39271 184.974 3.08877 184.974 3.52381C184.974 4.95944 184.461 7.92858 183.436 12.4312C182.432 16.9121 181.56 19.1526 180.818 19.1526C180.229 19.1526 179.651 18.848 179.083 18.239C178.516 17.6299 178.222 16.9991 178.2 16.3466C178.156 16.1073 178.243 15.4112 178.462 14.2584C178.68 13.0838 178.92 11.2892 179.182 8.87479C179.443 6.43857 179.574 3.79571 179.574 0.946208Z" fill="#1F2A37"/>
</svg>
