<svg width="277" height="225" viewBox="0 0 277 225" fill="none" xmlns="http://www.w3.org/2000/svg">
<path d="M268.32 223.385C272.77 223.385 276.401 219.818 276.472 215.368C276.811 193.186 278.598 160.458 236.821 151.41C203.01 144.084 223.06 83.9996 132.002 87.8802C66.6409 90.6657 84.0008 145.762 33.1825 150.347C-0.634541 153.401 -0.929103 196.17 0.370812 215.765C0.652568 220.049 4.21293 223.379 8.50969 223.379H268.32V223.385Z" fill="#DDDDEC"/>
<path opacity="0.55" d="M237.154 151.403C203.343 144.078 223.393 83.9933 132.335 87.8738C116.787 88.5398 105.926 92.1642 97.7107 97.3574C100.477 96.9924 103.416 96.7363 106.548 96.6082C197.599 92.7277 177.556 152.812 211.367 160.138C252.702 169.09 251.395 201.216 251.03 223.379H268.653C273.103 223.379 276.734 219.812 276.804 215.362C277.144 193.18 278.93 160.458 237.154 151.403Z" fill="#EAEBF2"/>
<path d="M138.389 207.114C138.389 207.114 136.942 205.756 137.916 200.62C138.889 195.485 141.361 190.548 140.144 184.977C138.934 179.399 129.431 165.35 129.405 164.415C129.373 163.48 126.472 180.763 131.384 187.576C136.295 194.383 136.885 196.746 136.667 200.326C136.449 203.905 136.718 206.793 137.256 207.626L138.389 207.114Z" fill="#D6BBFB"/>
<path d="M137.487 196.785C136.917 199.077 136.571 204.821 137.48 206.198C137.564 206.326 137.685 206.255 137.839 206.018C137.564 205.071 137.378 203.406 137.903 200.627C138.876 195.491 141.348 190.554 140.132 184.983C138.921 179.405 129.418 165.356 129.393 164.421C129.393 164.421 130.827 176.133 135.643 184.189C139.101 189.952 138.057 194.492 137.487 196.785Z" fill="#9E77ED"/>
<path d="M140.118 206.761C140.118 206.761 137.326 199.794 142.058 193.762C146.791 187.73 154.353 179.981 154.5 176.914C154.5 176.914 156.447 191.482 150.287 195.606C144.133 199.73 139.817 200.389 140.88 206.735L140.118 206.761Z" fill="#D6BBFB"/>
<path d="M146.765 192.679C139.9 197.674 139.337 203.431 140.406 206.101C140.489 206.306 140.643 206.434 140.854 206.504C139.932 200.383 144.216 199.685 150.293 195.612C156.447 191.488 154.507 176.92 154.507 176.92C154.507 176.92 153.623 187.678 146.765 192.679Z" fill="#9E77ED"/>
<path d="M135.525 206.915C135.525 206.915 136.421 203.226 135.941 199.243C135.467 195.26 131.305 193.019 127.418 188.812C125.42 186.648 124.825 175.205 126.067 174.142C126.067 174.142 119.202 182.46 120.265 188.55C121.322 194.639 132.522 198.597 133.559 201.542C134.596 204.488 134.507 206.953 134.507 206.953L135.525 206.915Z" fill="#D6BBFB"/>
<path d="M123.749 177.413C121.482 183.554 123.807 190.995 131.344 195.619C136.889 199.019 135.122 206.095 135.122 206.095L136.031 203.303C136.114 202.099 136.121 200.69 135.948 199.243C135.474 195.26 131.312 193.019 127.425 188.812C125.497 186.724 124.876 176.005 125.946 174.295C125.632 174.692 124.742 175.845 123.749 177.413Z" fill="#9E77ED"/>
<path d="M125.946 174.295C126.023 174.199 126.068 174.141 126.068 174.141C126.03 174.18 125.985 174.231 125.946 174.295Z" fill="#9E77ED"/>
<path d="M141.551 206.454C141.551 206.454 143.158 200.486 147.141 199.679C151.117 198.878 155.69 192.993 155.933 191.841C155.933 191.847 155.26 202.932 141.551 206.454Z" fill="#D6BBFB"/>
<path d="M146.912 201.657C144.472 202.874 143.46 204.513 143.102 206.005C155.307 202.08 155.934 191.847 155.934 191.847C155.883 192.077 155.666 192.494 155.313 193.012C154.116 195.113 151.221 199.506 146.912 201.657Z" fill="#9E77ED"/>
<path d="M150.164 204.257H129.353L131.825 219.798C132.01 220.976 133.028 221.847 134.219 221.847H145.291C146.482 221.847 147.5 220.983 147.686 219.798L150.164 204.257Z" fill="#FEC84B"/>
<path d="M149.754 206.831L150.164 204.257H129.353L129.763 206.831H149.754Z" fill="#FDB022"/>
<path d="M145.117 204.257L142.645 219.798C142.46 220.976 141.442 221.847 140.25 221.847H145.29C146.481 221.847 147.499 220.983 147.685 219.798L150.157 204.257H145.117Z" fill="#FDB022"/>
<path d="M47.7484 119.459C49.9832 119.459 51.9299 117.833 52.2373 115.617C52.2885 115.22 52.3205 114.81 52.3205 114.4C52.3205 109.463 48.3183 105.461 43.3812 105.461C43.1763 105.461 42.9778 105.467 42.7793 105.487C42.3694 100.62 38.2904 96.7971 33.3213 96.7971C28.0768 96.7971 23.8248 101.049 23.8248 106.294C23.8248 106.524 23.8376 106.755 23.8505 106.985C22.3648 106.153 20.6295 105.711 18.7853 105.794C14.0146 106.012 10.0957 109.828 9.7563 114.593C9.7563 114.631 9.7499 114.669 9.7499 114.708C9.59621 117.295 11.6902 119.472 14.2836 119.472H47.7484V119.459Z" fill="#E9D7FE"/>
<path d="M98.36 69.0656C100.595 69.0656 102.541 67.4391 102.849 65.2235C102.9 64.8265 102.932 64.4167 102.932 64.0068C102.932 59.0697 98.9299 55.0675 93.9928 55.0675C93.7879 55.0675 93.5894 55.0739 93.3908 55.0931C92.981 50.2265 88.902 46.4036 83.9328 46.4036C78.6884 46.4036 74.4364 50.6555 74.4364 55.9C74.4364 56.1305 74.4492 56.361 74.462 56.5916C72.9764 55.7591 71.2411 55.3173 69.3968 55.4005C64.6262 55.6182 60.7073 59.4347 60.3679 64.199C60.3679 64.2374 60.3615 64.2758 60.3615 64.3142C60.2078 66.9012 62.3017 69.0784 64.8952 69.0784H98.36V69.0656Z" fill="#E9D7FE"/>
<path d="M261.068 126.477C268.138 126.477 268.528 115.841 261.465 115.495C261.273 115.489 261.081 115.482 260.883 115.482C259.621 115.482 258.411 115.681 257.271 116.046C256.323 110.289 251.329 105.896 245.303 105.896C239.143 105.896 234.065 110.488 233.283 116.43C231.823 115.732 230.184 115.335 228.455 115.335C227.488 115.335 226.553 115.457 225.657 115.687C219.478 117.282 220.771 126.477 227.155 126.477H261.068Z" fill="#E9D7FE"/>
<path d="M188.607 78.3202L188.56 213.981C188.559 218.438 184.945 222.049 180.489 222.047L109.573 222.023C105.116 222.021 101.505 218.408 101.507 213.95L101.554 78.2899C101.555 73.8343 105.169 70.2233 109.626 70.2249L180.542 70.2491C184.998 70.2506 188.609 73.8646 188.607 78.3202Z" fill="#B692F6"/>
<path opacity="0.1" d="M188.563 207.635L188.608 78.3202C188.609 73.8646 184.998 70.2506 180.543 70.2491L109.627 70.2249C105.17 70.2233 101.556 73.8343 101.554 78.2899L180.496 199.562C184.9 205.669 184.507 205.275 188.563 207.635Z" fill="#53389E"/>
<path d="M180.489 223.061L109.572 223.036C104.565 223.035 100.491 218.96 100.494 213.951L100.541 78.2903C100.543 73.2826 104.619 69.2091 109.627 69.2122L180.544 69.2364C185.552 69.2379 189.625 73.3129 189.622 78.3221L189.575 213.983C189.574 218.99 185.497 223.064 180.489 223.061ZM109.625 71.2383C105.734 71.2368 102.567 74.4018 102.567 78.2918L102.52 213.952C102.519 217.844 105.684 221.01 109.574 221.01L180.491 221.035C184.382 221.036 187.547 217.871 187.549 213.981L187.596 78.3206C187.598 74.4291 184.432 71.2625 180.543 71.2625L109.625 71.2383Z" fill="#293056"/>
<path d="M112.708 114.855C111.265 114.855 110.091 113.682 110.091 112.239C110.091 110.795 111.265 109.622 112.708 109.622H170.943C172.387 109.622 173.56 110.795 173.56 112.239C173.56 113.682 172.387 114.855 170.943 114.855H112.708Z" fill="#DBDBDB"/>
<path d="M113.407 114.289C111.964 114.289 110.79 113.115 110.79 111.672C110.79 110.228 111.964 109.055 113.407 109.055H171.642C173.086 109.055 174.259 110.228 174.259 111.672C174.259 113.115 173.086 114.289 171.642 114.289H113.407Z" fill="#625763"/>
<path d="M113.407 112.603C112.893 112.603 112.475 112.186 112.475 111.671C112.475 111.157 112.893 110.74 113.407 110.74H171.642C172.156 110.74 172.573 111.157 172.573 111.671C172.573 112.186 172.156 112.603 171.642 112.603H113.407Z" fill="#A8A8A8"/>
<path d="M164.301 172.244H123.836C121.794 172.244 120.138 170.588 120.138 168.546V114.289H169.535V167.012C169.535 169.901 167.192 172.244 164.301 172.244Z" fill="#B692F6"/>
<path d="M117.925 102.926C115.86 102.926 114.185 104.601 114.185 106.666V112.592H121.56V106.666V102.926H117.925Z" fill="#7F56D9"/>
<path d="M120.137 106.666V114.288H121.56V106.666V102.926H120.137H117.925C117.664 102.926 117.407 102.953 117.16 103.004C118.861 103.358 120.137 104.862 120.137 106.666Z" fill="#B692F6"/>
<g filter="url(#filter0_dd_15_841)">
<path d="M167.999 103.471H122.562H118.822C120.887 103.471 122.562 105.003 122.562 106.892V162.788C122.562 164.674 124.232 166.202 126.295 166.202H171.734V106.886C171.734 104.999 170.061 103.471 167.999 103.471Z" fill="#D2D6DB"/>
</g>
<path d="M166.997 102.926H121.559H117.819C119.884 102.926 121.559 104.601 121.559 106.666V167.781C121.559 169.844 123.23 171.515 125.293 171.515H170.733V106.659C170.733 104.597 169.06 102.926 166.997 102.926Z" fill="#F9F5FF"/>
<path opacity="0.3" d="M170.734 165.596L170.323 165.185L169.445 166.064L168.566 165.185L167.688 166.064L166.809 165.185L165.93 166.064L165.052 165.185L164.173 166.064L163.295 165.185L162.416 166.064L161.537 165.185L160.659 166.064L159.78 165.185L158.902 166.064L158.023 165.185L157.145 166.064L156.266 165.185L155.387 166.064L154.509 165.185L153.63 166.064L152.752 165.185L151.873 166.064L150.994 165.185L150.116 166.064L149.237 165.185L148.359 166.064L147.493 165.185L146.614 166.064L145.736 165.185L144.857 166.064L143.978 165.185L143.1 166.064L142.225 165.185L141.347 166.064L140.468 165.185L139.59 166.064L138.711 165.185L137.832 166.064L136.954 165.185L136.075 166.064L135.197 165.185L134.318 166.064L133.44 165.185L132.561 166.064L131.682 165.185L130.804 166.064L129.925 165.185L129.047 166.064L128.168 165.185L127.289 166.064L126.411 165.185V169.039C126.411 169.989 126.053 170.855 125.469 171.515H170.726V165.596H170.734Z" fill="#DBDBDB"/>
<path d="M177.31 163.411L176.432 162.533L175.553 163.411L174.675 162.533L173.796 163.411L172.918 162.533L172.039 163.411L171.16 162.533L170.282 163.411L169.403 162.533L168.525 163.411L167.646 162.533L166.767 163.411L165.889 162.533L165.01 163.411L164.132 162.533L163.253 163.411L162.374 162.533L161.496 163.411L160.617 162.533L159.739 163.411L158.86 162.533L157.982 163.411L157.103 162.533L156.224 163.411L155.346 162.533L154.467 163.411L153.589 162.533L152.71 163.411L151.831 162.533L150.953 163.411L150.074 162.533L149.196 163.411L148.317 162.533L147.438 163.411L146.56 162.533L145.681 163.411L144.803 162.533L143.924 163.411L143.046 162.533L142.167 163.411L141.288 162.533L140.41 163.411L139.531 162.533L138.653 163.411L137.774 162.533L136.895 163.411L136.017 162.533L135.138 163.411L134.26 162.533L133.381 163.411L132.502 162.533L131.624 163.411L130.745 162.533L129.867 163.411L128.988 162.533V167.775C128.988 169.84 127.313 171.515 125.248 171.515H128.988H174.428C176.491 171.515 178.162 169.844 178.162 167.781V162.535L177.31 163.411Z" fill="#7F56D9"/>
<path d="M140.642 131.835C140.642 133.342 139.421 134.563 137.914 134.563C136.408 134.563 135.187 133.342 135.187 131.835C135.187 130.329 136.408 129.108 137.914 129.108C139.421 129.108 140.642 130.329 140.642 131.835Z" fill="#384250"/>
<path fill-rule="evenodd" clip-rule="evenodd" d="M155.371 134.017C156.576 134.017 157.553 133.04 157.553 131.835C157.553 130.63 156.576 129.653 155.371 129.653C154.166 129.653 153.189 130.63 153.189 131.835C153.189 133.04 154.166 134.017 155.371 134.017ZM155.371 134.563C156.877 134.563 158.098 133.342 158.098 131.835C158.098 130.329 156.877 129.108 155.371 129.108C153.864 129.108 152.643 130.329 152.643 131.835C152.643 133.342 153.864 134.563 155.371 134.563Z" fill="#1F2A37"/>
<path fill-rule="evenodd" clip-rule="evenodd" d="M137.914 134.018C139.119 134.018 140.096 133.041 140.096 131.836C140.096 130.631 139.119 129.654 137.914 129.654C136.709 129.654 135.732 130.631 135.732 131.836C135.732 133.041 136.709 134.018 137.914 134.018ZM137.914 134.564C139.42 134.564 140.641 133.343 140.641 131.836C140.641 130.33 139.42 129.109 137.914 129.109C136.407 129.109 135.186 130.33 135.186 131.836C135.186 133.343 136.407 134.564 137.914 134.564Z" fill="#1F2A37"/>
<path d="M158.097 131.836C158.097 133.343 156.876 134.564 155.37 134.564C153.864 134.564 152.643 133.343 152.643 131.836C152.643 130.33 153.864 129.109 155.37 129.109C156.876 129.109 158.097 130.33 158.097 131.836Z" fill="#384250"/>
<path fill-rule="evenodd" clip-rule="evenodd" d="M144.843 139.296C141.956 139.945 139.69 142.193 137.603 144.327C137.182 144.757 136.491 144.765 136.06 144.343C135.63 143.922 135.622 143.231 136.043 142.801L136.07 142.774C138.071 140.728 140.761 137.978 144.364 137.167C148.115 136.323 152.498 137.624 157.769 142.784C158.2 143.205 158.207 143.896 157.786 144.327C157.365 144.757 156.674 144.765 156.243 144.343C151.26 139.466 147.596 138.676 144.843 139.296Z" fill="#1F2A37"/>
<path fill-rule="evenodd" clip-rule="evenodd" d="M134.299 127.766C133.169 128.639 132.454 129.76 132.254 130.114C132.106 130.376 131.773 130.469 131.511 130.32C131.249 130.172 131.156 129.839 131.304 129.577C131.542 129.156 132.343 127.898 133.632 126.902C134.934 125.897 136.778 125.131 139.025 125.834C139.313 125.924 139.473 126.23 139.383 126.518C139.293 126.805 138.987 126.965 138.699 126.875C136.895 126.31 135.416 126.902 134.299 127.766Z" fill="#1F2A37"/>
<path fill-rule="evenodd" clip-rule="evenodd" d="M156.832 126.465C155.429 126.201 154.116 126.412 153.718 126.498C153.424 126.562 153.134 126.374 153.07 126.08C153.007 125.785 153.194 125.495 153.488 125.432C153.961 125.33 155.433 125.092 157.034 125.393C158.65 125.698 160.448 126.566 161.416 128.714C161.54 128.988 161.418 129.311 161.143 129.435C160.869 129.559 160.546 129.437 160.422 129.162C159.645 127.438 158.22 126.727 156.832 126.465Z" fill="#1F2A37"/>
<path d="M93.0272 215.997H89.5071V220.792H93.0272V215.997Z" fill="#163560"/>
<path d="M112.941 215.997H109.421V220.792H112.941V215.997Z" fill="#163560"/>
<path d="M88.761 221.519C88.761 220.136 89.8823 219.012 91.2659 219.012C92.6495 219.012 93.7709 220.136 93.7709 221.519C93.7709 222.905 92.6495 224.026 91.2659 224.026C89.8823 224.026 88.761 222.905 88.761 221.519Z" fill="#1F4777"/>
<path d="M89.7444 221.518C89.7444 220.677 90.4252 219.997 91.2642 219.997C92.1032 219.997 92.784 220.677 92.784 221.518C92.784 222.359 92.1032 223.04 91.2642 223.04C90.4252 223.04 89.7444 222.359 89.7444 221.518Z" fill="#163560"/>
<path d="M108.68 221.519C108.68 220.136 109.801 219.012 111.185 219.012C112.568 219.012 113.69 220.136 113.69 221.519C113.69 222.905 112.568 224.026 111.185 224.026C109.801 224.026 108.68 222.905 108.68 221.519Z" fill="#1F4777"/>
<path d="M109.663 221.518C109.663 220.677 110.344 219.997 111.183 219.997C112.022 219.997 112.703 220.677 112.703 221.518C112.703 222.359 112.022 223.04 111.183 223.04C110.344 223.04 109.663 222.359 109.663 221.518Z" fill="#163560"/>
<path d="M119.648 218.685H83.1868C79.6907 218.685 76.8574 215.852 76.8574 212.356V211.529H125.501V212.832C125.501 216.064 122.879 218.685 119.648 218.685Z" fill="#DC6803"/>
<path d="M127.167 151.437V209.489C127.167 210.19 127.089 210.871 126.94 211.528H120.132C119.075 211.528 118.09 211.836 117.259 212.367C116.744 212.693 116.292 213.105 115.919 213.586C115.209 214.493 114.788 215.634 114.788 216.876V218.686H88.1148V216.876C88.1148 215.01 87.1616 213.366 85.7119 212.409C85.3035 212.138 84.8509 211.922 84.3724 211.772C83.8678 211.614 83.3291 211.528 82.7705 211.528H75.4098C75.2617 210.871 75.1836 210.19 75.1836 209.489V151.437C75.1836 146.357 79.2964 142.242 84.3704 142.242H117.978C123.056 142.242 127.167 146.357 127.167 151.437Z" fill="#FDB022"/>
<path d="M110.963 142.212C104.672 139.733 99.4298 139.858 96.14 140.396C92.5718 140.983 90.4633 142.172 90.4433 142.184L90.0088 141.429C90.0989 141.377 92.2454 140.162 95.9538 139.545C99.3598 138.979 104.786 138.84 111.282 141.403L110.963 142.212Z" fill="#163560"/>
<path d="M85.7126 142.243V212.409C85.3041 212.139 84.8516 211.922 84.373 211.772V142.243H85.7126Z" fill="#F79009"/>
<path d="M96.4343 142.242H95.0947V218.685H96.4343V142.242Z" fill="#F79009"/>
<path d="M106.436 142.242H105.096V218.686H106.436V142.242Z" fill="#F79009"/>
<path d="M117.259 142.242V212.366C116.744 212.692 116.291 213.105 115.919 213.585V142.242H117.259Z" fill="#F79009"/>
<path d="M98.8492 21.0749C100.126 19.9298 101.239 18.4984 102.186 16.7807C103.132 15.0409 103.606 13.3783 103.606 11.7927C103.606 10.2071 103.408 8.98492 103.011 8.12607C102.615 7.26722 102.064 6.83779 101.36 6.83779C100.655 6.83779 99.7301 7.47643 98.585 8.75369C97.4618 10.0089 96.4378 11.6606 95.5129 13.7086C94.61 15.7566 94.1586 17.7166 94.1586 19.5885C94.1586 20.5354 94.2907 21.3062 94.555 21.9008C94.8192 22.4733 95.1495 22.7596 95.5459 22.7596C96.4709 22.7596 97.5719 22.198 98.8492 21.0749ZM95.579 26.7566C93.9493 26.7566 92.4959 25.9638 91.2186 24.3782C89.9414 22.7706 89.3027 21.174 89.3027 19.5885C89.3027 17.5624 89.6881 15.4924 90.4589 13.3783C91.2296 11.2422 92.1876 9.40334 93.3327 7.86181C94.4999 6.29826 95.7772 5.02099 97.1645 4.03C98.5519 3.017 99.8292 2.51049 100.996 2.51049C103.132 2.51049 104.883 3.4244 106.249 5.25222C107.614 7.05801 108.297 9.09503 108.297 11.3633C108.297 13.6315 107.724 15.9328 106.579 18.2671C105.434 20.5794 103.848 22.5724 101.822 24.2461C99.8182 25.9197 97.7371 26.7566 95.579 26.7566Z" fill="#1F2A37"/>
<path d="M121.514 9.77771C122.329 9.77771 123.199 10.5044 124.124 11.9579C125.071 13.4113 125.544 14.8648 125.544 16.3182C125.544 17.1991 125.17 18.2451 124.421 19.4563C123.673 20.6675 122.726 21.8127 121.58 22.8917C120.457 23.9488 119.147 24.8517 117.65 25.6004C116.174 26.3492 114.765 26.7235 113.421 26.7235H113.025C111.638 32.4933 110.658 35.3781 110.085 35.3781C109.623 35.3781 109.138 34.9928 108.632 34.222C108.103 33.4512 107.839 32.8126 107.839 32.3061C107.839 31.7996 108.158 30.247 108.797 27.6485C110.691 19.9408 111.638 14.127 111.638 10.2071C111.638 9.54648 111.957 9.21615 112.596 9.21615C113.124 9.21615 113.796 9.51345 114.611 10.108C115.425 10.7026 115.932 11.4734 116.13 12.4203C118.002 10.6586 119.797 9.77771 121.514 9.77771ZM114.049 22.7926C115.767 22.4623 117.385 21.5154 118.905 19.9518C120.446 18.3883 121.217 17.0339 121.217 15.8888C121.217 14.7436 120.898 14.1711 120.259 14.1711C119.334 14.1711 118.354 14.6996 117.319 15.7566C116.901 16.1971 116.438 16.8467 115.932 17.7056C115.425 18.5644 114.985 19.5664 114.611 20.7116L114.049 22.7926Z" fill="#1F2A37"/>
<path d="M139.289 9.77771C140.104 9.77771 140.974 10.5044 141.898 11.9579C142.845 13.4113 143.319 14.8648 143.319 16.3182C143.319 17.1991 142.944 18.2451 142.196 19.4563C141.447 20.6675 140.5 21.8127 139.355 22.8917C138.232 23.9488 136.922 24.8517 135.424 25.6004C133.949 26.3492 132.539 26.7235 131.196 26.7235H130.799C129.412 32.4933 128.432 35.3781 127.86 35.3781C127.397 35.3781 126.913 34.9928 126.406 34.222C125.878 33.4512 125.613 32.8126 125.613 32.3061C125.613 31.7996 125.933 30.247 126.571 27.6485C128.465 19.9408 129.412 14.127 129.412 10.2071C129.412 9.54648 129.731 9.21615 130.37 9.21615C130.899 9.21615 131.57 9.51345 132.385 10.108C133.2 10.7026 133.706 11.4734 133.905 12.4203C135.776 10.6586 137.571 9.77771 139.289 9.77771ZM131.823 22.7926C133.541 22.4623 135.16 21.5154 136.679 19.9518C138.221 18.3883 138.992 17.0339 138.992 15.8888C138.992 14.7436 138.672 14.1711 138.034 14.1711C137.109 14.1711 136.129 14.6996 135.094 15.7566C134.675 16.1971 134.213 16.8467 133.706 17.7056C133.2 18.5644 132.759 19.5664 132.385 20.7116L131.823 22.7926Z" fill="#1F2A37"/>
<path d="M155.61 9.77771C156.447 9.77771 157.273 10.2732 158.087 11.2642C158.902 12.2552 159.31 13.1471 159.31 13.9398C159.31 14.4684 159.078 14.7326 158.616 14.7326C158.352 14.7326 157.966 14.6335 157.46 14.4353C156.953 14.2151 156.436 14.105 155.907 14.105C155.401 14.105 154.641 14.2812 153.628 14.6335C152.637 14.9859 152.141 15.4483 152.141 16.0209C152.141 16.2411 152.439 16.5604 153.033 16.9789C153.628 17.3973 154.278 17.8267 154.982 18.2671C155.687 18.7076 156.337 19.3242 156.931 20.117C157.526 20.8877 157.823 21.7356 157.823 22.6605C157.823 23.5634 157.151 24.4773 155.808 25.4022C154.487 26.3271 152.923 26.7896 151.117 26.7896C149.334 26.7896 147.803 26.3822 146.526 25.5674C145.249 24.7526 144.61 23.9158 144.61 23.0569C144.61 22.198 144.962 21.7686 145.667 21.7686C145.953 21.7686 146.295 21.8787 146.691 22.0989C147.792 22.7376 149.158 23.0569 150.787 23.0569C152.439 23.0569 153.265 22.8367 153.265 22.3962C153.265 21.9558 152.945 21.4713 152.307 20.9428C151.69 20.3923 151.007 19.8858 150.259 19.4233C149.532 18.9608 148.849 18.3993 148.211 17.7386C147.594 17.0559 147.286 16.3953 147.286 15.7566C147.286 14.5675 148.365 13.2792 150.523 11.8918C152.681 10.4824 154.377 9.77771 155.61 9.77771Z" fill="#1F2A37"/>
<path d="M163.168 23.8497C163.168 23.2551 163.421 22.6715 163.927 22.0989C164.434 21.5044 164.94 21.2071 165.447 21.2071C165.953 21.2071 166.537 21.8017 167.198 22.9908C167.88 24.18 168.222 25.0719 168.222 25.6665C168.222 25.9528 168.035 26.2721 167.66 26.6244C167.308 26.9768 166.955 27.153 166.603 27.153C165.942 27.153 165.205 26.7456 164.39 25.9308C163.575 25.1159 163.168 24.4223 163.168 23.8497ZM166.57 0.957951C166.57 0.319317 166.911 0 167.594 0C168.277 0 169.18 0.484481 170.303 1.45344C171.448 2.42241 172.021 3.12711 172.021 3.56754C172.021 5.02099 171.503 8.02697 170.468 12.5855C169.455 17.122 168.574 19.3903 167.825 19.3903C167.231 19.3903 166.647 19.082 166.075 18.4653C165.502 17.8487 165.205 17.2101 165.183 16.5494C165.139 16.3072 165.227 15.6025 165.447 14.4353C165.667 13.2462 165.909 11.4294 166.174 8.98492C166.438 6.51847 166.57 3.84282 166.57 0.957951Z" fill="#1F2A37"/>
<path d="M178.942 23.8497C178.942 23.2551 179.195 22.6715 179.702 22.0989C180.208 21.5044 180.715 21.2071 181.221 21.2071C181.728 21.2071 182.312 21.8017 182.972 22.9908C183.655 24.18 183.996 25.0719 183.996 25.6665C183.996 25.9528 183.809 26.2721 183.435 26.6244C183.082 26.9768 182.73 27.153 182.378 27.153C181.717 27.153 180.979 26.7456 180.164 25.9308C179.35 25.1159 178.942 24.4223 178.942 23.8497ZM182.345 0.957951C182.345 0.319317 182.686 0 183.369 0C184.051 0 184.954 0.484481 186.077 1.45344C187.222 2.42241 187.795 3.12711 187.795 3.56754C187.795 5.02099 187.277 8.02697 186.242 12.5855C185.229 17.122 184.349 19.3903 183.6 19.3903C183.005 19.3903 182.422 19.082 181.849 18.4653C181.276 17.8487 180.979 17.2101 180.957 16.5494C180.913 16.3072 181.001 15.6025 181.221 14.4353C181.442 13.2462 181.684 11.4294 181.948 8.98492C182.212 6.51847 182.345 3.84282 182.345 0.957951Z" fill="#1F2A37"/>
<defs>
<filter id="filter0_dd_15_841" x="98.8218" y="103.471" width="92.9126" height="102.731" filterUnits="userSpaceOnUse" color-interpolation-filters="sRGB">
<feFlood flood-opacity="0" result="BackgroundImageFix"/>
<feColorMatrix in="SourceAlpha" type="matrix" values="0 0 0 0 0 0 0 0 0 0 0 0 0 0 0 0 0 0 127 0" result="hardAlpha"/>
<feMorphology radius="4" operator="erode" in="SourceAlpha" result="effect1_dropShadow_15_841"/>
<feOffset dy="20"/>
<feGaussianBlur stdDeviation="12"/>
<feComposite in2="hardAlpha" operator="out"/>
<feColorMatrix type="matrix" values="0 0 0 0 0.121569 0 0 0 0 0.164706 0 0 0 0 0.215686 0 0 0 0.08 0"/>
<feBlend mode="normal" in2="BackgroundImageFix" result="effect1_dropShadow_15_841"/>
<feColorMatrix in="SourceAlpha" type="matrix" values="0 0 0 0 0 0 0 0 0 0 0 0 0 0 0 0 0 0 127 0" result="hardAlpha"/>
<feMorphology radius="4" operator="erode" in="SourceAlpha" result="effect2_dropShadow_15_841"/>
<feOffset dy="8"/>
<feGaussianBlur stdDeviation="4"/>
<feComposite in2="hardAlpha" operator="out"/>
<feColorMatrix type="matrix" values="0 0 0 0 0.121569 0 0 0 0 0.164706 0 0 0 0 0.215686 0 0 0 0.03 0"/>
<feBlend mode="normal" in2="effect1_dropShadow_15_841" result="effect2_dropShadow_15_841"/>
<feBlend mode="normal" in="SourceGraphic" in2="effect2_dropShadow_15_841" result="shape"/>
</filter>
</defs>
</svg>
