<svg width="50" height="50" viewBox="0 0 50 50" fill="none" xmlns="http://www.w3.org/2000/svg">
<rect x="0.6" y="0.6" width="48.8" height="48.8" rx="24.4" fill="#ECEDF3" stroke="#ECEDF3" stroke-width="1.2"/>
<path d="M31.6666 23.3334C31.6666 27.0151 25 33.3334 25 33.3334C25 33.3334 18.3333 27.0151 18.3333 23.3334C18.3333 21.5653 19.0357 19.8696 20.2859 18.6194C21.5362 17.3691 23.2319 16.6667 25 16.6667C26.7681 16.6667 28.4638 17.3691 29.714 18.6194C30.9643 19.8696 31.6666 21.5653 31.6666 23.3334V23.3334Z" stroke="#53587A" stroke-width="1.25"/>
<path d="M25 24C25.2652 24 25.5196 23.8946 25.7071 23.7071C25.8946 23.5196 26 23.2652 26 23C26 22.7348 25.8946 22.4804 25.7071 22.2929C25.5196 22.1054 25.2652 22 25 22C24.7348 22 24.4804 22.1054 24.2929 22.2929C24.1054 22.4804 24 22.7348 24 23C24 23.2652 24.1054 23.5196 24.2929 23.7071C24.4804 23.8946 24.7348 24 25 24Z" fill="#53587A" stroke="#53587A" stroke-width="1.25" stroke-linecap="round" stroke-linejoin="round"/>
</svg>
