<svg width="18" height="18" viewBox="0 0 18 18" fill="none" xmlns="http://www.w3.org/2000/svg">
<path d="M15.6038 8.4374H14.0625C14.0267 8.12811 13.8786 7.84273 13.6464 7.63537C13.4141 7.42801 13.1138 7.31308 12.8025 7.3124H12.375C12.3832 6.33134 12.095 5.37066 11.5481 4.55615C10.981 3.7095 10.1319 3.09158 9.15188 2.81239C9.05254 2.78454 8.94746 2.78454 8.84812 2.81239C7.8681 3.09158 7.01896 3.7095 6.45188 4.55615C5.90498 5.37066 5.61678 6.33134 5.625 7.3124H5.20875C4.89547 7.31032 4.59245 7.42399 4.35783 7.63162C4.12322 7.83924 3.97354 8.12618 3.9375 8.4374H2.39625C2.05955 8.43888 1.73706 8.57329 1.49898 8.81137C1.26089 9.04946 1.12648 9.37194 1.125 9.70865V16.3124C1.125 16.4616 1.18426 16.6047 1.28975 16.7101C1.39524 16.8156 1.53832 16.8749 1.6875 16.8749H16.3125C16.4617 16.8749 16.6048 16.8156 16.7102 16.7101C16.8157 16.6047 16.875 16.4616 16.875 16.3124V9.70865C16.8735 9.37194 16.7391 9.04946 16.501 8.81137C16.2629 8.57329 15.9405 8.43888 15.6038 8.4374ZM7.38 5.19177C7.76766 4.60714 8.33694 4.16634 9 3.93739C9.65984 4.16046 10.2287 4.59304 10.62 5.16927C11.0424 5.80326 11.2621 6.55067 11.25 7.3124H6.75C6.74244 6.55832 6.96196 5.81941 7.38 5.19177ZM2.25 9.70865C2.25 9.66986 2.26541 9.63266 2.29284 9.60523C2.32026 9.5778 2.35746 9.5624 2.39625 9.5624H3.9375V15.7499H2.25V9.70865ZM5.0625 8.9999V8.58365C5.0625 8.54486 5.07791 8.50766 5.10534 8.48023C5.13276 8.4528 5.16996 8.4374 5.20875 8.4374H12.7913C12.83 8.4374 12.8672 8.4528 12.8947 8.48023C12.9221 8.50766 12.9375 8.54486 12.9375 8.58365V15.7499H11.8125V13.4999C11.8125 12.754 11.5162 12.0386 10.9887 11.5112C10.4613 10.9837 9.74592 10.6874 9 10.6874C8.25408 10.6874 7.53871 10.9837 7.01126 11.5112C6.48382 12.0386 6.1875 12.754 6.1875 13.4999V15.7499H5.0625V8.9999ZM7.3125 15.7499V13.4999C7.3125 13.0523 7.49029 12.6231 7.80676 12.3067C8.12322 11.9902 8.55245 11.8124 9 11.8124C9.44755 11.8124 9.87678 11.9902 10.1932 12.3067C10.5097 12.6231 10.6875 13.0523 10.6875 13.4999V15.7499H7.3125ZM15.75 15.7499H14.0625V9.70865C14.0625 9.66986 14.0779 9.63266 14.1053 9.60523C14.1328 9.5778 14.17 9.5624 14.2087 9.5624H15.6038C15.6425 9.5624 15.6797 9.5778 15.7072 9.60523C15.7346 9.63266 15.75 9.66986 15.75 9.70865V15.7499Z" fill="#234F68"/>
</svg>
